<svg xmlns="http://www.w3.org/2000/svg" fill="#1faa61" width="355.8" height="121" xmlns:v="https://vecta.io/nano"><path d="M135.2 43.4h11.7v42.8h-11.3l-.7-5.4c-2.9 4.5-9 6.2-13.2 6.3-12.8.1-22.1-8.2-22.1-22.3 0-14.2 9.8-22.5 22.4-22.3 5.4 0 10.4 2.1 12.6 5.9l.6-5zm-23.1 21.4c0 7.1 5 11.3 11.3 11.3 7 0 11.3-5.5 11.3-10.8 0-6.1-3.9-11.8-11.3-11.8-6.3-.1-11.3 4.2-11.3 11.3zM169 43.5l1 4.7c2.9-4 6.7-5.7 11.4-5.7 4.1 0 7.4 1.2 10.5 3.9l-5.2 9.9c-2.1-1.5-4.2-2.2-6.8-2.2-5.4 0-10 3.5-10 9.9v22.2h-12.5V43.5H169zm55.2 42.7v-23c0-5.6-2.3-9.3-7.4-9.3-4.9 0-7.7 4.6-7.7 9.4v22.9h-12.5V43.4h10.9l.9 4.8c2.7-4.7 7.6-5.8 11.3-5.8 4.7 0 9.7 1.7 12.5 8 3.8-5.8 7.9-8.1 14.2-8.1 8.9 0 17.1 4.5 17.1 20.4v23.4h-12.6v-23c0-5.4-1.5-8.9-6.5-8.9-4.9 0-7.9 4.2-7.9 9.1v22.9h-12.3zm82.3-42.8h11.7v42.8h-11.3l-.7-5.4c-2.9 4.5-9 6.2-13.2 6.3-12.8.1-22.1-8.2-22.1-22.3 0-14.2 9.8-22.5 22.4-22.3 5.4 0 10.4 2.1 12.6 5.9l.6-5zm-23.1 21.4c0 7.1 5 11.3 11.3 11.3 7 0 11.3-5.5 11.3-10.8 0-6.1-3.9-11.8-11.3-11.8-6.2-.1-11.3 4.2-11.3 11.3zm-194 17.6l6.9 7-9.3 9.3-7.3-7.5c-4.9 2.6-10.7 3.9-17.3 3.9C43.2 95.1 30 83.5 30 63.7s13.2-31.4 32.4-31.4 32.2 11.6 32.2 31.4c0 7.5-1.9 13.8-5.2 18.7zm-27-37.9c-11.4 0-19.3 8.1-19.3 19.3C43.2 75.3 51 83 62.4 83c11.6 0 19.5-8.6 19.1-19.3 0-11.1-7.4-19.2-19.1-19.2zm-1 3.1c-4.4 0-8.2 1.4-11.1 3.8 0 0 11.9-1.5 18.2 4.9 7.1 7.1 7 18.2 7 18.2 1.9-2.8 2.8-6.2 2.7-9.9 0-9.9-6.6-17-16.8-17z"/></svg>