<svg width="75" height="32" viewBox="0 0 75 32" fill="none" xmlns="http://www.w3.org/2000/svg">
<path d="M47.1914 31.8252V13.3378H52.0143V21.3758L51.9473 18.9252C51.9473 16.3351 52.8825 15.5475 53.5222 14.9078C54.7475 13.6825 56.2119 13.0698 58.2437 13.0698H58.9805V18.2945H57.5739C56.2119 18.2945 55.1513 18.663 54.3922 19.3998C53.6553 20.1366 53.2869 21.1972 53.2869 22.5815V31.8252H47.1914Z" fill="#1C1C1F"/>
<path d="M33.7776 31.9967C31.6788 31.9967 30.0488 31.3157 28.8878 29.9537C27.7491 28.5694 27.1797 26.8679 27.1797 24.0323V13.3149H33.2752V24.1997C33.2752 25.0258 33.5208 25.6957 34.012 26.2092C34.5032 26.7228 35.1619 26.9795 35.988 26.9795C36.8142 26.9795 37.484 26.7228 37.9975 26.2092C38.5111 25.6957 38.7678 25.0035 38.7678 24.1327V13.3149H44.8633V31.8023H40.0405V30.0045C39.3163 30.7385 38.8693 30.9824 37.799 31.4903C36.5737 32.0718 35.4298 31.9967 34.0455 31.9967H33.7776Z" fill="#1C1C1F"/>
<path d="M63.7508 31.8581V13.3706H69.8463V31.8581H63.7508ZM61.4062 17.7916V13.3706H69.8463V17.7916H61.4062Z" fill="#1C1C1F"/>
<path d="M0 31.8581V28.0735L8.20547 18.1935V18.7293L7.33469 17.6576L8.00452 17.9925H0.0669834V13.3706H15.0713V17.1552L6.8658 27.0353V26.4994L7.73659 27.5711L7.06675 27.2362H15.2722V31.8581H0Z" fill="#1C1C1F"/>
<path d="M18.4163 31.8582V7.40918H24.5118V31.8582H18.4163ZM16.3398 11.8301V7.40918H24.5118V11.8301H16.3398Z" fill="#1C1C1F"/>
</svg>
