<?xml version="1.0" encoding="utf-8"?>
<!-- Generator: Adobe Illustrator 19.0.0, SVG Export Plug-In . SVG Version: 6.00 Build 0)  -->
<svg version="1.1" id="Layer_1" xmlns="http://www.w3.org/2000/svg" xmlns:xlink="http://www.w3.org/1999/xlink" x="0px" y="0px"
	 viewBox="0 0 178 75" style="enable-background:new 0 0 178 75;" xml:space="preserve">
<style type="text/css">
	.st0{fill:#FFFFFF;}
</style>
<g id="XMLID_140_">
	<g id="XMLID_194_">
		<g id="XMLID_303_">
			<path id="XMLID_138_" class="st0" d="M18.4,22.8l0.1-0.1c0.2-0.4,0.5-0.8,0.8-1.2L12.9,17c-0.6,0.8-1.2,1.7-1.7,2.6l8.6,5
				c0.1-0.2,0.3-0.5,0.4-0.7L18.4,22.8z"/>
		</g>
		<g id="XMLID_301_">
			<path id="XMLID_137_" class="st0" d="M21.3,18.9l0.1-0.1c0.3-0.3,0.6-0.7,1-1l-5.5-5.5c-0.7,0.7-1.4,1.5-2.1,2.3l7.6,6.4
				c0.2-0.2,0.3-0.4,0.5-0.6L21.3,18.9z"/>
		</g>
		<path id="XMLID_136_" class="st0" d="M42,68.5l0-5.1c-0.2,0-0.4,0-0.6,0l-0.1,2l-0.2,0c-0.4,0-0.8,0-1.3-0.1L39.2,73
			c0.9,0.1,1.9,0.1,2.8,0.1L42,68.5z"/>
		<path id="XMLID_135_" class="st0" d="M46.5,63.1c-0.2,0-0.4,0.1-0.6,0.1l0.3,2l-0.2,0c-0.4,0.1-0.8,0.1-1.3,0.1l0.7,7.6
			c0.9-0.1,1.8-0.2,2.8-0.4L46.5,63.1z"/>
		<path id="XMLID_134_" class="st0" d="M36.5,64.9l-0.2,0c-0.4-0.1-0.8-0.2-1.3-0.3l-2,7.4c0.9,0.2,1.8,0.4,2.7,0.6l1.7-9.5
			c-0.2,0-0.4-0.1-0.6-0.1L36.5,64.9z"/>
		<path id="XMLID_133_" class="st0" d="M50.9,61.9c-0.2,0.1-0.4,0.1-0.6,0.2l0.6,1.9l-0.2,0c-0.4,0.1-0.8,0.2-1.2,0.4l2,7.3
			c0.9-0.2,1.8-0.5,2.7-0.8L50.9,61.9z"/>
		<path id="XMLID_132_" class="st0" d="M31.8,63.5l-0.1-0.1c-0.4-0.2-0.8-0.3-1.2-0.5l-3.2,6.9c0.8,0.4,1.7,0.7,2.6,1.1l3.3-9
			c-0.2-0.1-0.4-0.1-0.6-0.2L31.8,63.5z"/>
		<path id="XMLID_131_" class="st0" d="M55,60.1c-0.2,0.1-0.4,0.2-0.5,0.3l0.9,1.8l-0.1,0.1c-0.4,0.2-0.7,0.4-1.1,0.6l3.2,6.9
			c0.8-0.4,1.7-0.8,2.5-1.3L55,60.1z"/>
		<path id="XMLID_130_" class="st0" d="M27.5,61.3l-0.1-0.1c-0.4-0.2-0.7-0.5-1.1-0.7l-4.4,6.2c0.8,0.5,1.5,1,2.3,1.5l4.8-8.3
			c-0.2-0.1-0.3-0.2-0.5-0.3L27.5,61.3z"/>
		<path id="XMLID_129_" class="st0" d="M58.7,57.5c-0.2,0.1-0.3,0.3-0.5,0.4l1.2,1.6l-0.1,0.1c-0.3,0.3-0.7,0.5-1,0.7l4.4,6.2
			c0.8-0.5,1.5-1.1,2.2-1.7L58.7,57.5z"/>
		<path id="XMLID_128_" class="st0" d="M23.6,58.4l-0.1-0.1c-0.3-0.3-0.6-0.6-0.9-0.9l-5.4,5.4c0.7,0.6,1.3,1.3,2,1.9l6.2-7.4
			c-0.2-0.1-0.3-0.3-0.4-0.4L23.6,58.4z"/>
		<path id="XMLID_127_" class="st0" d="M61.9,54.3c-0.1,0.2-0.3,0.3-0.4,0.5l1.5,1.4l-0.1,0.1c-0.3,0.3-0.6,0.6-0.9,0.9l5.4,5.4
			c0.6-0.7,1.3-1.3,1.9-2L61.9,54.3z"/>
		<path id="XMLID_126_" class="st0" d="M20.3,54.8l-0.1-0.1c-0.3-0.3-0.5-0.7-0.8-1l-6.3,4.4c0.5,0.8,1.1,1.5,1.7,2.2l7.4-6.2
			c-0.1-0.2-0.2-0.3-0.4-0.5L20.3,54.8z"/>
		<path id="XMLID_125_" class="st0" d="M64.6,50.6c-0.1,0.2-0.2,0.4-0.3,0.6l1.7,1.1l-0.1,0.1c-0.2,0.3-0.4,0.7-0.7,1l6.2,4.4
			c0.5-0.8,1-1.6,1.5-2.3L64.6,50.6z"/>
		<path id="XMLID_124_" class="st0" d="M17.6,50.8l-0.1-0.1c-0.2-0.4-0.4-0.8-0.6-1.1L10,52.7c0.4,0.8,0.8,1.7,1.3,2.5l8.3-4.8
			c-0.1-0.2-0.2-0.3-0.3-0.5L17.6,50.8z"/>
		<path id="XMLID_123_" class="st0" d="M66.5,46.5c-0.1,0.2-0.2,0.4-0.2,0.6l1.9,0.8L68.1,48c-0.2,0.4-0.3,0.8-0.5,1.1l6.9,3.2
			c0.4-0.8,0.7-1.7,1.1-2.6L66.5,46.5z"/>
		<path id="XMLID_122_" class="st0" d="M15.7,46.3l0-0.2c-0.1-0.4-0.3-0.8-0.4-1.2l-7.4,2c0.2,0.9,0.5,1.8,0.8,2.7l9-3.3
			c-0.1-0.2-0.1-0.4-0.2-0.6L15.7,46.3z"/>
		<path id="XMLID_121_" class="st0" d="M67.7,42.2c0,0.2-0.1,0.4-0.1,0.6l2,0.4l0,0.2c-0.1,0.4-0.2,0.8-0.3,1.2l7.3,2
			c0.2-0.9,0.4-1.8,0.6-2.7L67.7,42.2z"/>
		<path id="XMLID_120_" class="st0" d="M14.5,41.5l0-0.2c-0.1-0.4-0.1-0.8-0.1-1.3l-7.6,0.7c0.1,0.9,0.2,1.8,0.4,2.8l9.5-1.7
			c0-0.2-0.1-0.4-0.1-0.6L14.5,41.5z"/>
		<path id="XMLID_119_" class="st0" d="M68.1,37.6c0,0.2,0,0.4,0,0.7l2,0.1l0,0.2c0,0.4,0,0.8-0.1,1.2l7.6,0.7
			c0.1-0.9,0.1-1.9,0.1-2.9L68.1,37.6z"/>
		<path id="XMLID_118_" class="st0" d="M14.3,36.7l0-0.2c0-0.4,0-0.8,0.1-1.2l-7.6-0.7c-0.1,0.9-0.1,1.8-0.1,2.8h9.6
			c0-0.2,0-0.4,0-0.6L14.3,36.7z"/>
		<path id="XMLID_117_" class="st0" d="M69.8,33.5l0,0.2c0.1,0.4,0.1,0.8,0.1,1.2l7.6-0.7c-0.1-0.9-0.2-1.8-0.4-2.8l-9.5,1.7
			c0,0.2,0.1,0.4,0.1,0.7L69.8,33.5z"/>
		<path id="XMLID_116_" class="st0" d="M14.8,31.9l0-0.2c0.1-0.4,0.2-0.8,0.3-1.2l-7.4-2c-0.2,0.9-0.4,1.8-0.6,2.7l9.5,1.6
			c0-0.2,0.1-0.4,0.1-0.6L14.8,31.9z"/>
		<path id="XMLID_115_" class="st0" d="M68.7,28.7l0.1,0.2c0.1,0.4,0.2,0.8,0.3,1.2l7.4-2c-0.2-0.9-0.5-1.8-0.8-2.7l-9,3.3
			c0.1,0.2,0.1,0.4,0.2,0.6L68.7,28.7z"/>
		<path id="XMLID_114_" class="st0" d="M16.2,27.2l0.1-0.1c0.2-0.4,0.3-0.8,0.5-1.2l-7-3.2c-0.4,0.8-0.7,1.7-1.1,2.6l9,3.3
			c0.1-0.2,0.1-0.4,0.2-0.6L16.2,27.2z"/>
		<path id="XMLID_113_" class="st0" d="M66.8,24.3l0.1,0.1c0.2,0.4,0.4,0.7,0.5,1.1l6.9-3.2c-0.4-0.8-0.8-1.7-1.3-2.5l-8.3,4.8
			c0.1,0.2,0.2,0.4,0.3,0.6L66.8,24.3z"/>
		<path id="XMLID_112_" class="st0" d="M64.1,20.2l0.1,0.1c0.2,0.3,0.5,0.6,0.7,1l6.2-4.4c-0.5-0.7-1.1-1.5-1.7-2.2l-7.3,6.2
			c0.1,0.2,0.3,0.3,0.4,0.5L64.1,20.2z"/>
		<path id="XMLID_111_" class="st0" d="M60.8,16.7l0.1,0.1c0.3,0.3,0.6,0.5,0.9,0.8l5.4-5.4c-0.7-0.6-1.3-1.3-2.1-1.9l-6.2,7.4
			c0.2,0.1,0.3,0.3,0.5,0.4L60.8,16.7z"/>
		<path id="XMLID_110_" class="st0" d="M24.9,15.6l0.1-0.1c0.3-0.3,0.7-0.5,1-0.7l-4.4-6.3c-0.7,0.5-1.5,1.1-2.2,1.7l6.2,7.4
			c0.2-0.1,0.3-0.3,0.5-0.4L24.9,15.6z"/>
		<path id="XMLID_109_" class="st0" d="M56.9,13.8l0.1,0.1c0.3,0.2,0.7,0.4,1,0.7l4.4-6.3c-0.8-0.5-1.6-1-2.3-1.5l-4.8,8.3
			c0.2,0.1,0.4,0.2,0.6,0.4L56.9,13.8z"/>
		<path id="XMLID_108_" class="st0" d="M28.9,12.9l0.1-0.1c0.4-0.2,0.7-0.4,1.1-0.6l-3.3-6.9c-0.8,0.4-1.7,0.8-2.5,1.3l4.8,8.3
			c0.2-0.1,0.4-0.2,0.6-0.3L28.9,12.9z"/>
		<path id="XMLID_107_" class="st0" d="M52.5,11.6l0.1,0.1c0.4,0.2,0.7,0.3,1.1,0.5L57,5.2c-0.8-0.4-1.7-0.7-2.6-1.1l-3.3,9
			c0.2,0.1,0.4,0.2,0.6,0.2L52.5,11.6z"/>
		<path id="XMLID_106_" class="st0" d="M33.4,11l0.2,0c0.4-0.1,0.8-0.2,1.2-0.4l-2-7.4C31.8,3.4,31,3.7,30.1,4l3.3,9
			c0.2-0.1,0.4-0.1,0.6-0.2L33.4,11z"/>
		<path id="XMLID_105_" class="st0" d="M47.8,10.2l0.2,0c0.4,0.1,0.8,0.2,1.2,0.3l2-7.4c-0.9-0.2-1.8-0.4-2.7-0.6L46.8,12
			c0.2,0,0.4,0.1,0.6,0.1L47.8,10.2z"/>
		<path id="XMLID_104_" class="st0" d="M38.1,9.9l0.2,0c0.4-0.1,0.8-0.1,1.2-0.1l-0.7-7.6c-0.9,0.1-1.8,0.2-2.8,0.4l1.7,9.5
			c0.2,0,0.4-0.1,0.7-0.1L38.1,9.9z"/>
		<path id="XMLID_103_" class="st0" d="M43,9.6l0.2,0c0.4,0,0.8,0,1.2,0.1L45,2.1c-0.9-0.1-1.8-0.1-2.8-0.1v9.6c0.2,0,0.5,0,0.7,0
			L43,9.6z"/>
		<path id="XMLID_102_" class="st0" d="M40.3,58.6l-0.2,0l0.1-0.9c-0.1,0-0.3,0-0.4,0L38.9,65c0.7,0.1,1.4,0.1,2.1,0.2l0.1-3.5
			l0.1-3C41,58.6,40.6,58.6,40.3,58.6z"/>
		<path id="XMLID_101_" class="st0" d="M44,58.6l-0.2,0l-0.1-0.9c-0.1,0-0.3,0-0.4,0l0.4,7.4c0.7,0,1.4-0.1,2.1-0.2l-0.9-6.4
			C44.6,58.5,44.3,58.5,44,58.6z"/>
		<path id="XMLID_100_" class="st0" d="M36.7,57.9l-0.2,0l0.2-0.9c-0.1,0-0.3-0.1-0.4-0.1L34.2,64c0.7,0.2,1.3,0.4,2,0.5l1.3-6.3
			C37.3,58.1,37,58,36.7,57.9z"/>
		<path id="XMLID_99_" class="st0" d="M48.5,57.7c-0.3,0.1-0.6,0.2-0.9,0.3l-0.2,0l-0.2-0.9c-0.1,0-0.3,0.1-0.4,0.1l1.6,7.2
			c0.7-0.2,1.4-0.3,2-0.6L48.5,57.7z"/>
		<path id="XMLID_98_" class="st0" d="M33.2,56.7l-0.1-0.1l0.4-0.8c-0.1-0.1-0.2-0.1-0.3-0.2l-3.4,6.6c0.6,0.3,1.3,0.6,1.9,0.9
			l2.4-6C33.8,56.9,33.5,56.8,33.2,56.7z"/>
		<path id="XMLID_97_" class="st0" d="M51.9,56.3c-0.3,0.1-0.5,0.3-0.8,0.4L51,56.7l-0.4-0.8c-0.1,0.1-0.3,0.1-0.4,0.2l2.9,6.8
			c0.6-0.3,1.3-0.6,1.9-0.9L51.9,56.3z"/>
		<path id="XMLID_96_" class="st0" d="M30,54.8l-0.1-0.1l0.5-0.8c-0.1-0.1-0.2-0.1-0.3-0.2l-4.5,5.9c0.6,0.4,1.1,0.8,1.7,1.2
			l3.4-5.5C30.6,55.2,30.3,55,30,54.8z"/>
		<path id="XMLID_95_" class="st0" d="M55,54.3c-0.2,0.2-0.5,0.4-0.7,0.5l-0.1,0.1l-0.5-0.7c-0.1,0.1-0.2,0.2-0.3,0.2l4,6.2
			c0.6-0.4,1.1-0.8,1.7-1.2L55,54.3z"/>
		<path id="XMLID_94_" class="st0" d="M27.2,52.5l-0.1-0.1l0.7-0.7c-0.1-0.1-0.2-0.2-0.3-0.3l-5.4,5c0.5,0.5,1,1,1.5,1.5l4.3-4.8
			C27.7,52.9,27.4,52.7,27.2,52.5z"/>
		<path id="XMLID_93_" class="st0" d="M57.7,51.8c-0.2,0.2-0.4,0.4-0.6,0.7L57,52.6l-0.6-0.6c-0.1,0.1-0.2,0.2-0.3,0.3l5,5.4
			c0.5-0.5,1-1,1.5-1.5L57.7,51.8z"/>
		<path id="XMLID_92_" class="st0" d="M24.9,49.7l-0.1-0.1l0.8-0.5c-0.1-0.1-0.2-0.2-0.2-0.3l-6.2,4c0.4,0.6,0.8,1.1,1.2,1.7l5.1-4
			C25.2,50.2,25,49.9,24.9,49.7z"/>
		<path id="XMLID_91_" class="st0" d="M60,48.9c-0.2,0.3-0.3,0.5-0.5,0.7l-0.1,0.1l-0.7-0.5c-0.1,0.1-0.2,0.2-0.2,0.3l5.9,4.5
			c0.4-0.6,0.8-1.1,1.2-1.7L60,48.9z"/>
		<path id="XMLID_90_" class="st0" d="M23,46.5l-0.1-0.1l0.9-0.4c-0.1-0.1-0.1-0.2-0.2-0.4l-6.8,2.9c0.3,0.6,0.6,1.3,0.9,1.9l5.7-3
			c0,0,0,0,0,0C23.3,47,23.1,46.7,23,46.5z"/>
		<path id="XMLID_89_" class="st0" d="M61.7,45.6c-0.1,0.3-0.2,0.5-0.4,0.8l-0.1,0.1l-0.8-0.4c-0.1,0.1-0.1,0.3-0.2,0.4l6.6,3.4
			c0.3-0.6,0.6-1.3,0.9-1.9L61.7,45.6z"/>
		<path id="XMLID_88_" class="st0" d="M21.7,43l0-0.2l0.9-0.2c0-0.1-0.1-0.3-0.1-0.4l-7.2,1.7c0.2,0.7,0.3,1.4,0.6,2l6.1-2
			C21.9,43.6,21.8,43.3,21.7,43z"/>
		<path id="XMLID_87_" class="st0" d="M62.8,42.1c-0.1,0.3-0.1,0.6-0.2,0.9l0,0.2l-0.9-0.2c0,0.1-0.1,0.3-0.1,0.4l7.1,2.2
			c0.2-0.7,0.4-1.3,0.5-2L62.8,42.1z"/>
		<path id="XMLID_86_" class="st0" d="M21.1,39.4l0-0.2l1-0.1c0-0.1,0-0.3,0-0.4l-7.4,0.4c0,0.7,0.1,1.4,0.2,2.1l6.4-0.9
			C21.2,40,21.1,39.7,21.1,39.4z"/>
		<path id="XMLID_85_" class="st0" d="M63.3,38.4c0,0.3,0,0.6-0.1,0.9l0,0.2l-0.9-0.1c0,0.2,0,0.3,0,0.4l7.3,0.9
			c0.1-0.7,0.1-1.4,0.2-2.1L63.3,38.4z"/>
		<path id="XMLID_84_" class="st0" d="M21.1,35.7l0-0.2l1,0.1c0-0.1,0-0.3,0-0.4l-7.3-0.9c-0.1,0.7-0.1,1.4-0.2,2.1l6.4,0.2
			C21.1,36.3,21.1,36,21.1,35.7z"/>
		<path id="XMLID_83_" class="st0" d="M69.6,33.8l-6.4,0.9c0,0.3,0.1,0.6,0.1,0.9l0,0.2l-0.9,0.1c0,0.1,0,0.3,0,0.4l7.4-0.4
			C69.7,35.2,69.6,34.5,69.6,33.8z"/>
		<path id="XMLID_82_" class="st0" d="M21.7,32.1l0-0.2l0.9,0.2c0-0.1,0.1-0.3,0.1-0.4l-7.1-2.2c-0.2,0.7-0.4,1.3-0.5,2l6.3,1.3
			C21.6,32.7,21.7,32.4,21.7,32.1z"/>
		<path id="XMLID_81_" class="st0" d="M68.5,29.1l-6.2,2c0.1,0.3,0.2,0.6,0.2,0.8l0,0.2l-0.9,0.2c0,0.1,0.1,0.3,0.1,0.4l7.2-1.7
			C68.9,30.5,68.7,29.8,68.5,29.1z"/>
		<path id="XMLID_80_" class="st0" d="M23,28.6l0.1-0.1l0.9,0.4c0.1-0.1,0.1-0.2,0.2-0.4l-6.6-3.4c-0.3,0.6-0.6,1.3-0.9,1.9l6,2.4
			C22.7,29.2,22.9,28.9,23,28.6z"/>
		<path id="XMLID_79_" class="st0" d="M66.6,24.7l-5.7,3c0.1,0.3,0.3,0.5,0.4,0.8l0.1,0.1l-0.8,0.4c0.1,0.1,0.1,0.3,0.2,0.4l6.8-2.9
			C67.3,26,67,25.3,66.6,24.7z"/>
		<path id="XMLID_78_" class="st0" d="M24.8,25.4l0.1-0.1l0.8,0.6c0.1-0.1,0.2-0.2,0.2-0.3L20,21c-0.4,0.6-0.8,1.1-1.2,1.7l5.5,3.4
			C24.5,25.9,24.7,25.6,24.8,25.4z"/>
		<path id="XMLID_77_" class="st0" d="M64,20.7l-5.1,4c0.2,0.2,0.3,0.5,0.5,0.7l0.1,0.1L58.8,26c0.1,0.1,0.2,0.3,0.3,0.4l6.2-4
			C64.9,21.8,64.5,21.2,64,20.7z"/>
		<path id="XMLID_76_" class="st0" d="M27.2,22.6l0.1-0.1l0.7,0.7c0.1-0.1,0.2-0.2,0.3-0.3l-5-5.4c-0.5,0.5-1,1-1.5,1.5l4.8,4.3
			C26.8,23,27,22.8,27.2,22.6z"/>
		<path id="XMLID_75_" class="st0" d="M60.8,17.1l-4.3,4.8c0.2,0.2,0.4,0.4,0.6,0.6l0.1,0.1l-0.7,0.7c0.1,0.1,0.2,0.2,0.3,0.3l5.4-5
			C61.8,18.1,61.3,17.6,60.8,17.1z"/>
		<path id="XMLID_74_" class="st0" d="M30,20.2l0.1-0.1l0.6,0.8c0.1-0.1,0.2-0.2,0.4-0.2l-4-6.2c-0.6,0.4-1.2,0.8-1.7,1.2l4,5.1
			C29.5,20.6,29.8,20.4,30,20.2z"/>
		<path id="XMLID_73_" class="st0" d="M57,14.2l-3.4,5.5c0.2,0.2,0.5,0.3,0.7,0.5l0.1,0.1L53.9,21c0.1,0.1,0.2,0.2,0.4,0.3l4.5-5.9
			C58.1,15,57.5,14.6,57,14.2z"/>
		<path id="XMLID_72_" class="st0" d="M56.6,32.4c0.1,0.3,0.2,0.6,0.3,1l5.3-1.4c-0.1-0.5-0.3-1-0.5-1.4L56.6,32.4z"/>
		<path id="XMLID_71_" class="st0" d="M55.5,30c0.2,0.3,0.3,0.6,0.5,0.9l5-2.3c-0.2-0.5-0.4-0.9-0.7-1.3L55.5,30z"/>
		<path id="XMLID_70_" class="st0" d="M54,27.8c0.2,0.3,0.4,0.5,0.6,0.8l4.5-3.2c-0.3-0.4-0.6-0.8-0.9-1.2L54,27.8z"/>
		<path id="XMLID_69_" class="st0" d="M33.2,18.4l0.1-0.1l0.4,0.9c0.1-0.1,0.3-0.1,0.4-0.2l-2.9-6.8c-0.6,0.3-1.3,0.6-1.9,0.9l3,5.7
			C32.7,18.6,32.9,18.5,33.2,18.4z"/>
		<path id="XMLID_68_" class="st0" d="M52.7,12l-2.4,6c0.3,0.1,0.5,0.2,0.8,0.4l0.1,0.1l-0.4,0.9c0.1,0.1,0.3,0.1,0.4,0.2l3.4-6.6
			C54,12.5,53.3,12.3,52.7,12z"/>
		<path id="XMLID_67_" class="st0" d="M36.7,17.1l0.2,0l0.3,0.9c0.1,0,0.3-0.1,0.4-0.1l-1.7-7.2c-0.7,0.2-1.4,0.3-2,0.6l2,6.1
			C36.1,17.2,36.4,17.2,36.7,17.1z"/>
		<path id="XMLID_66_" class="st0" d="M48.1,10.6l-1.3,6.3c0.3,0.1,0.6,0.1,0.8,0.2l0.2,0L47.5,18c0.1,0,0.3,0.1,0.4,0.1l2.2-7.1
			C49.4,10.9,48.8,10.7,48.1,10.6z"/>
		<path id="XMLID_65_" class="st0" d="M40.3,16.4l0.2,0l0.1,1c0.1,0,0.3,0,0.4,0L40.6,10c-0.7,0-1.4,0.1-2.1,0.2l0.9,6.4
			C39.7,16.5,40,16.5,40.3,16.4z"/>
		<path id="XMLID_64_" class="st0" d="M43.3,9.9l-0.2,6.4c0.3,0,0.6,0,0.9,0.1l0.2,0l-0.1,1c0.2,0,0.3,0,0.5,0l0.9-7.3
			C44.7,10,44,10,43.3,9.9z"/>
		<path id="XMLID_63_" class="st0" d="M51.1,50l3.2,4.5c0.4-0.3,0.8-0.6,1.2-0.9l-3.5-4.2C51.6,49.5,51.4,49.8,51.1,50z"/>
		<path id="XMLID_62_" class="st0" d="M53.1,48.2l3.9,3.9c0.3-0.4,0.7-0.7,1-1.1l-4.2-3.5C53.6,47.7,53.3,48,53.1,48.2z"/>
		<path id="XMLID_61_" class="st0" d="M54.8,46.1l4.5,3.2c0.3-0.4,0.6-0.8,0.8-1.3l-4.8-2.8C55.2,45.6,55,45.9,54.8,46.1z"/>
		<path id="XMLID_60_" class="st0" d="M56.1,43.8l5,2.3c0.2-0.5,0.4-0.9,0.6-1.4l-5.2-1.9C56.4,43.2,56.2,43.5,56.1,43.8z"/>
		<path id="XMLID_59_" class="st0" d="M57,41.3l5.3,1.4c0.1-0.5,0.2-1,0.3-1.5l-5.4-1C57.2,40.7,57.1,41,57,41.3z"/>
		<path id="XMLID_58_" class="st0" d="M57.4,38.7l5.5,0.5c0-0.5,0.1-1,0.1-1.5l-5.5,0C57.5,38,57.5,38.3,57.4,38.7z"/>
		<path id="XMLID_57_" class="st0" d="M57.3,35c0.1,0.3,0.1,0.7,0.1,1l5.5-0.5c0-0.5-0.1-1-0.2-1.5L57.3,35z"/>
		<path id="XMLID_56_" class="st0" d="M48.8,51.3l2.3,5c0.4-0.2,0.9-0.4,1.3-0.7l-2.8-4.8C49.4,51,49.1,51.2,48.8,51.3"/>
		<path id="XMLID_55_" class="st0" d="M46.3,52.3l1.4,5.3c0.5-0.1,1-0.3,1.4-0.4l-1.9-5.2C46.9,52.1,46.6,52.2,46.3,52.3z"/>
		<path id="XMLID_54_" class="st0" d="M42,55.7v-2.9c-0.3,0-0.7,0-1,0l-0.5,5.5c0.5,0,1,0.1,1.5,0.1L42,55.7"/>
		<path id="XMLID_53_" class="st0" d="M43.7,52.7l0.5,5.5c0.5,0,1-0.1,1.5-0.2l-1-5.4C44.3,52.7,44,52.7,43.7,52.7z"/>
		<path id="XMLID_52_" class="st0" d="M33.5,56.5c0.5,0.2,0.9,0.4,1.4,0.6l1.9-5.2c-0.3-0.1-0.6-0.2-0.9-0.4L33.5,56.5z"/>
		<path id="XMLID_51_" class="st0" d="M30.4,54.7c0.4,0.3,0.8,0.5,1.3,0.8l2.8-4.8c-0.3-0.2-0.6-0.4-0.9-0.5L30.4,54.7z"/>
		<path id="XMLID_50_" class="st0" d="M36.9,57.7c0.5,0.1,1,0.2,1.5,0.3l0.9-5.4c-0.3-0.1-0.7-0.1-1-0.2L36.9,57.7z"/>
		<path id="XMLID_49_" class="st0" d="M31.5,48.5l-3.9,3.9c0.4,0.3,0.7,0.7,1.1,1l3.5-4.2C31.9,48.9,31.7,48.7,31.5,48.5"/>
		<path id="XMLID_48_" class="st0" d="M25.2,49.6c0.3,0.4,0.6,0.8,0.9,1.2l4.2-3.5c-0.2-0.3-0.4-0.5-0.6-0.8L25.2,49.6z"/>
		<path id="XMLID_47_" class="st0" d="M23.4,46.5c0.2,0.4,0.4,0.9,0.7,1.3l4.8-2.8c-0.2-0.3-0.3-0.6-0.5-0.9L23.4,46.5z"/>
		<path id="XMLID_46_" class="st0" d="M22.1,43.1c0.1,0.5,0.3,1,0.5,1.4l5.2-1.9c-0.1-0.3-0.2-0.6-0.3-1L22.1,43.1z"/>
		<path id="XMLID_45_" class="st0" d="M21.4,39.5c0,0.5,0.1,1,0.2,1.5l5.4-1c-0.1-0.3-0.1-0.7-0.1-1L21.4,39.5z"/>
		<path id="XMLID_44_" class="st0" d="M21.7,33.8l5.4,0.9c0.1-0.3,0.1-0.7,0.2-1L22,32.3C21.9,32.8,21.8,33.3,21.7,33.8z"/>
		<path id="XMLID_43_" class="st0" d="M24.2,27l4.8,2.8c0.2-0.3,0.4-0.6,0.5-0.9L25,25.7C24.7,26.1,24.5,26.5,24.2,27z"/>
		<path id="XMLID_42_" class="st0" d="M21.3,37.4h5.5c0-0.3,0-0.7,0-1l-5.5-0.5C21.4,36.4,21.3,36.9,21.3,37.4z"/>
		<path id="XMLID_41_" class="st0" d="M22.6,30.3l5.2,1.9c0.1-0.3,0.2-0.6,0.4-0.9l-5-2.3C23,29.3,22.8,29.8,22.6,30.3z"/>
		<path id="XMLID_40_" class="st0" d="M26.3,24l4.2,3.5c0.2-0.3,0.4-0.5,0.7-0.7l-3.9-3.9C27,23.3,26.6,23.6,26.3,24z"/>
		<path id="XMLID_39_" class="st0" d="M28.9,21.5l3.6,4.2c0.3-0.2,0.5-0.4,0.8-0.6l-3.2-4.5C29.7,20.8,29.3,21.2,28.9,21.5z"/>
		<path id="XMLID_38_" class="st0" d="M52.1,25.9c0.3,0.2,0.5,0.4,0.7,0.7l3.9-3.9c-0.4-0.3-0.7-0.7-1.1-1L52.1,25.9z"/>
		<path id="XMLID_37_" class="st0" d="M49.9,24.3c0.3,0.2,0.6,0.4,0.9,0.5l3.2-4.5c-0.4-0.3-0.8-0.5-1.3-0.8L49.9,24.3z"/>
		<path id="XMLID_36_" class="st0" d="M47.5,23.2c0.3,0.1,0.6,0.2,0.9,0.4l2.3-5c-0.5-0.2-0.9-0.4-1.4-0.6L47.5,23.2z"/>
		<path id="XMLID_35_" class="st0" d="M45,22.5c0.3,0.1,0.7,0.1,1,0.2l1.4-5.3c-0.5-0.1-1-0.2-1.5-0.3L45,22.5z"/>
		<path id="XMLID_34_" class="st0" d="M38.7,17l1,5.4c0.3-0.1,0.7-0.1,1-0.1l-0.5-5.5C39.7,16.8,39.2,16.9,38.7,17z"/>
		<path id="XMLID_33_" class="st0" d="M42.3,22.2c0.3,0,0.7,0,1,0l0.5-5.5c-0.5,0-1-0.1-1.5-0.1V22.2z"/>
		<path id="XMLID_32_" class="st0" d="M31.9,19.4l2.8,4.8c0.3-0.2,0.6-0.3,0.9-0.5l-2.3-5C32.7,18.9,32.3,19.2,31.9,19.4z"/>
		<path id="XMLID_31_" class="st0" d="M35.2,17.9l1.9,5.2c0.3-0.1,0.6-0.2,1-0.3l-1.4-5.3C36.1,17.6,35.6,17.7,35.2,17.9z"/>
	</g>
	<g id="XMLID_186_">
		<path id="XMLID_192_" class="st0" d="M117.8,52.9h-4.3c-1.1,0-1.4-0.6-1.4-1.8l-0.5-14.9h-0.1L104.9,52c-0.3,0.9-0.9,1-1.5,1h-1.6
			c-0.8,0-1.3-0.1-1.7-1l-7.5-15.7h-0.1l-0.3,15.3c0,1.2-0.6,1.3-1.5,1.3h-3.6c-1,0-1.5-0.3-1.5-1.3c0,0,0-0.1,0-0.1l1.2-27.4
			c0-1,0.5-1.4,1.3-1.4h3.1c1,0,1.4,0.3,1.8,1.2l9.6,19.6h0.1l8.7-19.6c0.3-0.7,0.8-1.2,1.8-1.2h3c0.9,0,1.2,0.3,1.2,1.1l1.4,27.7
			c0,0,0,0.1,0,0.1C119,52.5,118.6,52.9,117.8,52.9z"/>
		<path id="XMLID_190_" class="st0" d="M144.6,25.3l-1.3,3.6c-0.2,0.4-0.3,0.7-0.7,0.7c-0.2,0-0.3-0.1-0.6-0.2
			c-2.3-1.1-4.1-1.5-6.1-1.5c-4.5,0-7.4,3.5-7.4,9.8c0,6.8,3.3,9.8,7.6,9.8c2,0,3.8-0.4,5.9-1.2c0.3-0.1,0.5-0.2,0.7-0.2
			c0.4,0,0.6,0.2,0.8,0.7l1.1,3.2c0.1,0.3,0.1,0.5,0.1,0.7c0,0.4-0.2,0.7-0.8,1c-3,1.1-5.5,1.7-8.8,1.7c-9.2,0-13.9-6.1-13.9-15.5
			c0-9.4,5.7-15.9,14.4-15.9c3.1,0,5.8,0.6,8.3,1.7c0.6,0.3,0.8,0.6,0.8,0.9C144.8,24.9,144.7,25.1,144.6,25.3z"/>
		<path id="XMLID_187_" class="st0" d="M158.4,53.5c-8.7,0-13.6-6.2-13.6-15.6c0-9.3,5.3-15.8,13.9-15.8c9.1,0,13.6,6.7,13.6,15.6
			C172.3,47.5,166.6,53.5,158.4,53.5z M158.5,28c-3.8,0-6.3,3.3-6.3,9.8c0,6.9,2.3,9.9,6.5,9.9c3.8,0,6.3-3.1,6.3-9.8
			C164.9,30.8,162.6,28,158.5,28z"/>
	</g>
	<g id="XMLID_141_">
		<path id="XMLID_184_" class="st0" d="M92.3,63.8h-0.5c-0.1,0-0.2-0.1-0.2-0.2L91.4,59h0l-1.8,4.7c0,0.1-0.1,0.1-0.2,0.1H89
			c-0.1,0-0.1,0-0.2-0.1l-2-4.7h0l-0.1,4.6c0,0.1,0,0.2-0.2,0.2h-0.5c-0.1,0-0.2,0-0.2-0.2v0l0.2-6.2c0-0.2,0-0.2,0.2-0.2h0.4
			c0.2,0,0.2,0,0.2,0.1l2.3,5.2h0l2.1-5.2c0-0.1,0.1-0.2,0.2-0.2H92c0.1,0,0.1,0,0.2,0.2l0.3,6.2v0c0,0,0,0,0,0
			C92.4,63.8,92.4,63.8,92.3,63.8z"/>
		<path id="XMLID_182_" class="st0" d="M97.9,59.4l-1.9,5c-0.4,1.1-0.9,1.5-1.9,1.5c-0.1,0-0.3,0-0.4,0c-0.1,0-0.1-0.1-0.1-0.1
			c0,0,0,0,0,0l0-0.4c0-0.1,0.1-0.1,0.1-0.1c0,0,0,0,0,0c0.1,0,0.2,0,0.3,0c0.5,0,0.8-0.2,1-0.7l0.2-0.6l-1.7-4.5c0,0,0,0,0-0.1
			c0-0.1,0-0.1,0.1-0.1h0.6c0.1,0,0.2,0,0.2,0.1l1.2,3.6l1.2-3.5c0-0.1,0.1-0.1,0.2-0.1h0.5C97.8,59.2,97.9,59.3,97.9,59.4
			C97.9,59.3,97.9,59.4,97.9,59.4z"/>
		<path id="XMLID_180_" class="st0" d="M103.4,63.5c-0.6,0.3-1.2,0.4-1.8,0.4c-2,0-2.9-1.5-2.9-3.4c0-1.8,1.1-3.4,3-3.4
			c0.6,0,1.2,0.1,1.7,0.4c0.1,0,0.1,0.1,0.1,0.1c0,0,0,0.1,0,0.1l-0.2,0.4c0,0.1-0.1,0.1-0.1,0.1c0,0-0.1,0-0.1,0
			c-0.4-0.3-0.9-0.4-1.4-0.4c-0.6,0-1.1,0.3-1.5,0.7c-0.4,0.5-0.6,1.2-0.6,1.9c0,1.4,0.6,2.7,2.1,2.7c0.5,0,1-0.1,1.5-0.4
			c0,0,0.1,0,0.1,0c0,0,0.1,0,0.1,0.1l0.1,0.3c0,0,0,0.1,0,0.1C103.6,63.4,103.5,63.5,103.4,63.5z"/>
		<path id="XMLID_177_" class="st0" d="M106.3,63.9c-1.5,0-2.1-1-2.1-2.4c0-1.3,0.8-2.4,2.2-2.4c1.5,0,2.1,1,2.1,2.4
			C108.5,62.9,107.7,63.9,106.3,63.9z M106.4,59.7c-1,0-1.3,0.9-1.3,1.7c0,0.9,0.3,1.8,1.3,1.8c1,0,1.3-0.9,1.3-1.8
			C107.7,60.6,107.4,59.7,106.4,59.7z"/>
		<path id="XMLID_175_" class="st0" d="M116.2,63.8h-0.4c-0.1,0-0.2-0.1-0.2-0.2v-2.7c0-0.7-0.2-1.2-0.9-1.2c-0.4,0-0.9,0.2-1.2,0.4
			c0.1,0.2,0.1,0.8,0.1,1v2.3c0,0.1-0.1,0.2-0.2,0.2h-0.4c-0.1,0-0.2-0.1-0.2-0.2v-2.7c0-0.7-0.1-1.2-0.9-1.2
			c-0.4,0-0.9,0.2-1.2,0.6v3.3c0,0.1-0.1,0.2-0.2,0.2h-0.4c-0.1,0-0.2-0.1-0.2-0.2v-4.2c0-0.1,0.1-0.2,0.2-0.2h0.4
			c0.1,0,0.2,0,0.2,0.2l0,0.3c0.4-0.4,0.9-0.6,1.4-0.6c0.5,0,1,0.2,1.2,0.6c0.4-0.4,1-0.6,1.6-0.6c0.6,0,1,0.2,1.3,0.6
			c0.2,0.3,0.3,0.7,0.3,1.3v2.6C116.3,63.7,116.3,63.8,116.2,63.8z"/>
		<path id="XMLID_172_" class="st0" d="M119.9,63.9c-0.5,0-1-0.2-1.3-0.5v2.3c0,0.1-0.1,0.2-0.2,0.2H118c-0.1,0-0.2-0.1-0.2-0.2
			v-6.3c0-0.1,0.1-0.2,0.2-0.2h0.4c0.1,0,0.2,0,0.2,0.2v0.3c0.3-0.4,0.9-0.6,1.4-0.6c1.3,0,1.9,1.1,1.9,2.4
			C122,62.7,121.3,63.9,119.9,63.9z M119.9,59.8c-0.4,0-1,0.3-1.2,0.6v2.2c0.2,0.4,0.7,0.7,1.1,0.7c1,0,1.3-0.9,1.3-1.8
			C121.1,60.7,120.8,59.8,119.9,59.8z"/>
		<path id="XMLID_170_" class="st0" d="M123.8,63.8h-0.5c-0.1,0-0.2-0.1-0.2-0.2v-6.3c0-0.1,0-0.2,0.1-0.2l0.5-0.1c0,0,0,0,0,0
			c0.1,0,0.1,0,0.1,0.2v6.4C124,63.7,123.9,63.8,123.8,63.8z"/>
		<path id="XMLID_167_" class="st0" d="M126,58.6c-0.3,0-0.5-0.2-0.5-0.5c0-0.3,0.2-0.5,0.5-0.5c0.3,0,0.5,0.2,0.5,0.5
			C126.5,58.4,126.2,58.6,126,58.6z M126.2,63.8h-0.4c-0.1,0-0.2-0.1-0.2-0.2v-4.2c0-0.1,0.1-0.2,0.2-0.2h0.4c0.1,0,0.2,0.1,0.2,0.2
			v4.2C126.4,63.7,126.3,63.8,126.2,63.8z"/>
		<path id="XMLID_164_" class="st0" d="M132,63.8h-0.4c-0.4,0-0.6-0.3-0.6-0.7h0c-0.2,0.4-0.8,0.8-1.4,0.8c-1.3,0-1.9-1.1-1.9-2.3
			c0-1.6,0.9-2.5,2-2.5c0.5,0,1,0.2,1.3,0.6l0-0.3c0-0.1,0.1-0.2,0.2-0.2h0.4c0.1,0,0.2,0.1,0.2,0.2v3.3c0,0.2,0,0.4,0,0.4
			c0,0.1,0.1,0.1,0.2,0.1h0.1c0.1,0,0.1,0,0.1,0.1v0.3C132.2,63.8,132.1,63.8,132,63.8z M131,60.5c-0.2-0.4-0.7-0.7-1.1-0.7
			c-0.7,0-1.3,0.6-1.3,1.8c0,1,0.5,1.7,1.2,1.7c0.6,0,1.1-0.5,1.3-1V60.5z"/>
		<path id="XMLID_162_" class="st0" d="M137,63.8h-0.4c-0.1,0-0.2-0.1-0.2-0.2V61c0-0.7-0.2-1.2-0.9-1.2c-0.4,0-1,0.2-1.3,0.6v3.3
			c0,0.1-0.1,0.2-0.2,0.2h-0.4c-0.1,0-0.2-0.1-0.2-0.2v-4.2c0-0.1,0-0.2,0.2-0.2h0.4c0.1,0,0.2,0,0.2,0.2l0,0.3
			c0.4-0.4,1-0.6,1.6-0.6c1.1,0,1.5,0.7,1.5,1.7v2.8C137.2,63.7,137.1,63.8,137,63.8z"/>
		<path id="XMLID_160_" class="st0" d="M141.9,63.6c-0.4,0.2-0.8,0.3-1.3,0.3c-1.5,0-2.2-1-2.2-2.4c0-1.4,0.8-2.4,2.3-2.4
			c0.4,0,0.9,0.1,1.2,0.3c0.1,0,0.1,0.1,0.1,0.1c0,0,0,0,0,0.1l-0.1,0.3c0,0.1,0,0.1-0.1,0.1c0,0-0.1,0-0.1,0
			c-0.3-0.1-0.6-0.2-1-0.2c-0.9,0-1.5,0.7-1.5,1.7c0,1,0.4,1.8,1.4,1.8c0.4,0,0.8-0.1,1.1-0.2c0,0,0.1,0,0.1,0c0,0,0.1,0,0.1,0.1
			l0.1,0.3c0,0,0,0.1,0,0.1C142,63.6,142,63.6,141.9,63.6z"/>
		<path id="XMLID_157_" class="st0" d="M146.5,61.6h-2.9c0,0.9,0.5,1.6,1.5,1.6c0.4,0,0.8-0.1,1.1-0.2c0,0,0.1,0,0.1,0
			c0,0,0.1,0,0.1,0.1l0.1,0.4c0,0,0,0,0,0c0,0.1,0,0.1-0.1,0.1c-0.4,0.2-1,0.3-1.5,0.3c-1.5,0-2.2-1-2.2-2.4c0-1.4,0.8-2.4,2.2-2.4
			c0.5,0,1,0.2,1.3,0.5c0.4,0.4,0.5,0.9,0.5,1.6v0.2C146.8,61.6,146.8,61.6,146.5,61.6z M146,61c0-0.6-0.4-1.2-1.1-1.2
			c-0.8,0-1.2,0.6-1.3,1.3h2.4V61z"/>
		<path id="XMLID_154_" class="st0" d="M150.6,63.9c-1.7,0-2.7-1.3-2.7-3.3c0-2.1,1.1-3.4,2.8-3.4c1.7,0,2.7,1.4,2.7,3.3
			C153.3,62.7,152.1,63.9,150.6,63.9z M150.6,57.9c-1.1,0-1.8,1.1-1.8,2.7c0,1.7,0.7,2.7,1.8,2.7c1.1,0,1.8-1,1.8-2.7
			C152.4,58.9,151.8,57.9,150.6,57.9z"/>
		<path id="XMLID_152_" class="st0" d="M157.4,57.4l-0.1,0.3c0,0.1,0,0.1-0.1,0.1c0,0-0.1,0-0.1,0c-0.2-0.1-0.4-0.1-0.6-0.1
			c-0.6,0-0.8,0.4-0.8,1.2v0.4h1.2c0.1,0,0.1,0,0.1,0.1v0.3c0,0.1,0,0.1-0.1,0.1h-1.2v3.8c0,0.1,0,0.2-0.2,0.2H155
			c-0.1,0-0.2-0.1-0.2-0.2v-3.8h-0.6c-0.1,0-0.1,0-0.1-0.1v-0.3c0-0.1,0-0.1,0.1-0.1h0.6V59c0-0.3,0-0.6,0-0.8
			c0.1-0.8,0.6-1.3,1.5-1.3c0.3,0,0.6,0.1,0.9,0.2C157.4,57.2,157.4,57.2,157.4,57.4C157.4,57.3,157.4,57.3,157.4,57.4z"/>
		<path id="XMLID_150_" class="st0" d="M160.9,57.4l-0.1,0.3c0,0.1,0,0.1-0.1,0.1c0,0-0.1,0-0.1,0c-0.2-0.1-0.4-0.1-0.6-0.1
			c-0.6,0-0.8,0.4-0.8,1.2v0.4h1.2c0.1,0,0.1,0,0.1,0.1v0.3c0,0.1,0,0.1-0.1,0.1h-1.2v3.8c0,0.1,0,0.2-0.2,0.2h-0.4
			c-0.1,0-0.2-0.1-0.2-0.2v-3.8h-0.6c-0.1,0-0.1,0-0.1-0.1v-0.3c0-0.1,0-0.1,0.1-0.1h0.6V59c0-0.3,0-0.6,0-0.8
			c0.1-0.8,0.6-1.3,1.5-1.3c0.3,0,0.6,0.1,0.9,0.2C160.9,57.2,160.9,57.2,160.9,57.4C160.9,57.3,160.9,57.3,160.9,57.4z"/>
		<path id="XMLID_147_" class="st0" d="M162.2,58.6c-0.3,0-0.5-0.2-0.5-0.5c0-0.3,0.2-0.5,0.5-0.5c0.3,0,0.5,0.2,0.5,0.5
			C162.7,58.4,162.5,58.6,162.2,58.6z M162.5,63.8H162c-0.1,0-0.2-0.1-0.2-0.2v-4.2c0-0.1,0.1-0.2,0.2-0.2h0.4
			c0.1,0,0.2,0.1,0.2,0.2v4.2C162.6,63.7,162.6,63.8,162.5,63.8z"/>
		<path id="XMLID_145_" class="st0" d="M167.5,63.6c-0.4,0.2-0.8,0.3-1.3,0.3c-1.5,0-2.2-1-2.2-2.4c0-1.4,0.8-2.4,2.3-2.4
			c0.4,0,0.9,0.1,1.2,0.3c0.1,0,0.1,0.1,0.1,0.1c0,0,0,0,0,0.1l-0.1,0.3c0,0.1,0,0.1-0.1,0.1c0,0-0.1,0-0.1,0
			c-0.3-0.1-0.6-0.2-1-0.2c-0.9,0-1.5,0.7-1.5,1.7c0,1,0.4,1.8,1.4,1.8c0.4,0,0.8-0.1,1.1-0.2c0,0,0.1,0,0.1,0c0,0,0.1,0,0.1,0.1
			l0.1,0.3c0,0,0,0.1,0,0.1C167.6,63.6,167.5,63.6,167.5,63.6z"/>
		<path id="XMLID_142_" class="st0" d="M172.1,61.6h-2.9c0,0.9,0.5,1.6,1.5,1.6c0.4,0,0.8-0.1,1.1-0.2c0,0,0.1,0,0.1,0
			c0,0,0.1,0,0.1,0.1l0.1,0.4c0,0,0,0,0,0c0,0.1,0,0.1-0.1,0.1c-0.4,0.2-1,0.3-1.5,0.3c-1.5,0-2.2-1-2.2-2.4c0-1.4,0.8-2.4,2.2-2.4
			c0.5,0,1,0.2,1.3,0.5c0.4,0.4,0.5,0.9,0.5,1.6v0.2C172.4,61.6,172.3,61.6,172.1,61.6z M171.6,61c0-0.6-0.4-1.2-1.1-1.2
			c-0.8,0-1.2,0.6-1.3,1.3h2.4V61z"/>
	</g>
</g>
</svg>
