<?xml version="1.0" encoding="UTF-8"?>
<svg xmlns="http://www.w3.org/2000/svg" id="a" viewBox="0 0 1795 250.17">
  <defs>
    <style>.b{fill:#0d1b41;}.b,.c{stroke-width:0px;}.c{fill:#fff;}</style>
  </defs>
  <path class="b" d="m242.59,249.41l-4.02-13.21h-20.22l-4.02,13.21h-12.67l19.58-55.7h14.38l19.65,55.7h-12.67Zm-6.83-23.07l-4.02-12.9c-.25-.86-.59-1.97-1-3.32s-.83-2.73-1.25-4.14c-.42-1.4-.75-2.62-1-3.66-.25,1.04-.6,2.32-1.04,3.85-.44,1.53-.87,2.98-1.27,4.35-.4,1.37-.7,2.34-.87,2.92l-3.98,12.9h14.46Z"></path>
  <path class="b" d="m327,249.41h-14.95l-24.13-41.97h-.34c.1,1.75.19,3.5.27,5.27.08,1.77.15,3.54.23,5.29.08,1.76.15,3.52.23,5.29v26.11h-10.51v-55.48h14.84l24.09,41.55h.27c-.05-1.72-.11-3.43-.19-5.12-.08-1.69-.15-3.39-.21-5.08s-.12-3.39-.17-5.09v-26.26h10.59v55.48Z"></path>
  <path class="b" d="m441.45,249.41h-14.95l-24.13-41.97h-.34c.1,1.75.19,3.5.27,5.27.08,1.77.15,3.54.23,5.29.08,1.76.15,3.52.23,5.29v26.11h-10.51v-55.48h14.84l24.09,41.55h.27c-.05-1.72-.11-3.43-.19-5.12-.08-1.69-.15-3.39-.21-5.08s-.12-3.39-.17-5.09v-26.26h10.59v55.48Z"></path>
  <path class="b" d="m494.52,202.93c-2.25,0-4.24.44-5.98,1.31s-3.19,2.13-4.36,3.78c-1.18,1.64-2.07,3.63-2.68,5.96s-.91,4.95-.91,7.86c0,3.92.49,7.27,1.46,10.04s2.48,4.88,4.54,6.34c2.05,1.46,4.69,2.18,7.93,2.18,2.25,0,4.51-.25,6.77-.76,2.26-.51,4.72-1.23,7.38-2.16v9.87c-2.45,1.01-4.87,1.74-7.25,2.18s-5.05.66-8.01.66c-5.72,0-10.42-1.18-14.1-3.55-3.68-2.36-6.41-5.68-8.18-9.94-1.77-4.26-2.66-9.24-2.66-14.93,0-4.2.57-8.04,1.71-11.53s2.81-6.51,5.01-9.07c2.2-2.55,4.92-4.53,8.16-5.92,3.24-1.39,6.96-2.09,11.16-2.09,2.76,0,5.52.35,8.29,1.04,2.77.7,5.42,1.65,7.95,2.87l-3.79,9.56c-2.08-.99-4.16-1.85-6.26-2.58-2.1-.73-4.16-1.1-6.19-1.1Z"></path>
  <path class="b" d="m586.37,221.6c0,4.27-.53,8.16-1.59,11.67-1.06,3.5-2.67,6.52-4.84,9.05s-4.9,4.47-8.21,5.82c-3.31,1.35-7.23,2.03-11.76,2.03s-8.45-.68-11.76-2.03c-3.32-1.35-6.05-3.29-8.21-5.82-2.17-2.53-3.78-5.55-4.84-9.07-1.06-3.52-1.59-7.42-1.59-11.72,0-5.74.94-10.74,2.83-15.01,1.88-4.26,4.79-7.57,8.71-9.92,3.92-2.35,8.9-3.53,14.95-3.53s10.97,1.18,14.85,3.53c3.88,2.35,6.77,5.67,8.65,9.94,1.88,4.28,2.83,9.3,2.83,15.06Zm-40.49,0c0,3.87.49,7.2,1.46,10,.98,2.8,2.5,4.95,4.57,6.45,2.07,1.5,4.75,2.26,8.04,2.26s6.04-.75,8.12-2.26c2.07-1.51,3.58-3.66,4.53-6.45s1.42-6.13,1.42-10c0-5.82-1.09-10.4-3.26-13.74-2.18-3.34-5.76-5.01-10.74-5.01-3.31,0-6.02.75-8.1,2.26-2.08,1.51-3.62,3.66-4.59,6.45-.97,2.8-1.46,6.14-1.46,10.04Z"></path>
  <path class="b" d="m662.62,249.41h-14.95l-24.13-41.97h-.34c.1,1.75.19,3.5.27,5.27.08,1.77.15,3.54.23,5.29.08,1.76.15,3.52.23,5.29v26.11h-10.51v-55.48h14.84l24.09,41.55h.27c-.05-1.72-.11-3.43-.19-5.12-.08-1.69-.15-3.39-.21-5.08s-.12-3.39-.17-5.09v-26.26h10.59v55.48Z"></path>
  <path class="b" d="m713.53,249.41h-11.76v-45.69h-15.06v-9.79h41.89v9.79h-15.06v45.69Z"></path>
  <path class="b" d="m768.84,193.94c5.03,0,9.19.61,12.47,1.82,3.27,1.21,5.71,3.05,7.3,5.5,1.59,2.45,2.39,5.55,2.39,9.3,0,2.53-.48,4.74-1.44,6.64-.96,1.9-2.23,3.5-3.79,4.82-1.57,1.32-3.26,2.39-5.08,3.23l16.32,24.17h-13.05l-13.24-21.29h-6.26v21.29h-11.76v-55.48h16.17Zm-.84,9.64h-3.57v14.99h3.8c3.89,0,6.68-.65,8.37-1.95,1.68-1.3,2.52-3.22,2.52-5.75s-.9-4.5-2.71-5.62-4.61-1.67-8.41-1.67Z"></path>
  <path class="b" d="m853.48,249.41l-4.02-13.21h-20.22l-4.02,13.21h-12.67l19.58-55.7h14.38l19.65,55.7h-12.67Zm-6.83-23.07l-4.02-12.9c-.25-.86-.59-1.97-1-3.32s-.83-2.73-1.25-4.14c-.42-1.4-.75-2.62-1-3.66-.25,1.04-.6,2.32-1.04,3.85-.44,1.53-.87,2.98-1.27,4.35-.4,1.37-.7,2.34-.87,2.92l-3.98,12.9h14.46Z"></path>
  <path class="b" d="m912.24,202.93c-2.25,0-4.24.44-5.98,1.31s-3.19,2.13-4.36,3.78c-1.18,1.64-2.07,3.63-2.68,5.96s-.91,4.95-.91,7.86c0,3.92.49,7.27,1.46,10.04s2.48,4.88,4.54,6.34c2.05,1.46,4.69,2.18,7.93,2.18,2.25,0,4.51-.25,6.77-.76,2.26-.51,4.72-1.23,7.38-2.16v9.87c-2.45,1.01-4.87,1.74-7.25,2.18s-5.05.66-8.01.66c-5.72,0-10.42-1.18-14.1-3.55-3.68-2.36-6.41-5.68-8.18-9.94-1.77-4.26-2.66-9.24-2.66-14.93,0-4.2.57-8.04,1.71-11.53s2.81-6.51,5.01-9.07c2.2-2.55,4.92-4.53,8.16-5.92,3.24-1.39,6.96-2.09,11.16-2.09,2.76,0,5.52.35,8.29,1.04,2.77.7,5.42,1.65,7.95,2.87l-3.79,9.56c-2.08-.99-4.16-1.85-6.26-2.58-2.1-.73-4.16-1.1-6.19-1.1Z"></path>
  <path class="b" d="m975.14,249.41h-11.76v-45.69h-15.06v-9.79h41.89v9.79h-15.06v45.69Z"></path>
  <path class="b" d="m1047.03,234.01c0,3.29-.8,6.15-2.39,8.58-1.59,2.43-3.92,4.3-6.96,5.62s-6.75,1.97-11.1,1.97c-1.92,0-3.8-.13-5.64-.38s-3.59-.63-5.27-1.12c-1.68-.49-3.28-1.11-4.8-1.84v-10.93c2.63,1.16,5.36,2.21,8.2,3.15,2.83.94,5.64,1.4,8.42,1.4,1.92,0,3.47-.25,4.65-.76,1.18-.5,2.03-1.2,2.56-2.09.53-.89.8-1.9.8-3.04,0-1.39-.47-2.58-1.4-3.57-.93-.99-2.22-1.91-3.85-2.77-1.63-.86-3.47-1.78-5.52-2.77-1.29-.61-2.69-1.35-4.21-2.22-1.52-.87-2.96-1.94-4.33-3.21-1.37-1.27-2.48-2.8-3.36-4.61-.87-1.81-1.31-3.98-1.31-6.51,0-3.31.76-6.15,2.28-8.5s3.69-4.16,6.51-5.41c2.82-1.25,6.15-1.88,10-1.88,2.88,0,5.64.34,8.25,1.01,2.62.67,5.36,1.64,8.21,2.9l-3.79,9.15c-2.56-1.04-4.85-1.84-6.87-2.41-2.02-.57-4.08-.85-6.18-.85-1.47,0-2.72.23-3.76.7s-1.82,1.13-2.35,1.97c-.53.85-.8,1.83-.8,2.94,0,1.32.39,2.42,1.16,3.32.77.9,1.94,1.76,3.49,2.6,1.56.83,3.5,1.81,5.82,2.92,2.83,1.34,5.26,2.74,7.27,4.19,2.01,1.46,3.56,3.16,4.65,5.12,1.09,1.96,1.63,4.4,1.63,7.3Z"></path>
  <path class="b" d="m1131.92,202.93c-2.25,0-4.24.44-5.98,1.31-1.73.87-3.19,2.13-4.36,3.78-1.18,1.64-2.07,3.63-2.68,5.96-.61,2.33-.91,4.95-.91,7.86,0,3.92.49,7.27,1.46,10.04.97,2.77,2.48,4.88,4.54,6.34,2.05,1.46,4.69,2.18,7.93,2.18,2.25,0,4.51-.25,6.77-.76,2.26-.51,4.72-1.23,7.38-2.16v9.87c-2.45,1.01-4.87,1.74-7.25,2.18s-5.05.66-8.01.66c-5.72,0-10.42-1.18-14.1-3.55-3.68-2.36-6.41-5.68-8.18-9.94-1.77-4.26-2.66-9.24-2.66-14.93,0-4.2.57-8.04,1.71-11.53,1.14-3.49,2.81-6.51,5.01-9.07,2.2-2.55,4.92-4.53,8.16-5.92,3.24-1.39,6.96-2.09,11.16-2.09,2.76,0,5.52.35,8.29,1.04,2.77.7,5.42,1.65,7.95,2.87l-3.79,9.56c-2.08-.99-4.16-1.85-6.26-2.58-2.1-.73-4.16-1.1-6.19-1.1Z"></path>
  <path class="b" d="m1223.77,221.6c0,4.27-.53,8.16-1.59,11.67-1.06,3.5-2.67,6.52-4.84,9.05-2.16,2.53-4.9,4.47-8.21,5.82-3.31,1.35-7.23,2.03-11.76,2.03s-8.45-.68-11.76-2.03c-3.32-1.35-6.05-3.29-8.21-5.82-2.17-2.53-3.78-5.55-4.84-9.07-1.06-3.52-1.59-7.42-1.59-11.72,0-5.74.94-10.74,2.83-15.01,1.88-4.26,4.79-7.57,8.71-9.92,3.92-2.35,8.9-3.53,14.95-3.53s10.97,1.18,14.85,3.53c3.88,2.35,6.77,5.67,8.65,9.94,1.88,4.28,2.83,9.3,2.83,15.06Zm-40.49,0c0,3.87.49,7.2,1.46,10,.98,2.8,2.5,4.95,4.57,6.45,2.07,1.5,4.75,2.26,8.04,2.26s6.04-.75,8.12-2.26c2.07-1.51,3.58-3.66,4.53-6.45.95-2.8,1.42-6.13,1.42-10,0-5.82-1.09-10.4-3.26-13.74-2.18-3.34-5.76-5.01-10.74-5.01-3.31,0-6.02.75-8.1,2.26-2.08,1.51-3.62,3.66-4.59,6.45-.97,2.8-1.46,6.14-1.46,10.04Z"></path>
  <path class="b" d="m1274.3,249.41l-13.36-43.52h-.34c.05,1.04.13,2.6.25,4.69.11,2.09.22,4.31.32,6.66.1,2.35.15,4.48.15,6.37v25.8h-10.51v-55.48h16.01l13.13,42.42h.23l13.93-42.42h16.01v55.48h-10.97v-26.26c0-1.75.03-3.76.1-6.03.06-2.28.14-4.45.25-6.51.1-2.06.18-3.61.23-4.65h-.34l-14.31,43.45h-10.78Z"></path>
  <path class="b" d="m1357.34,193.94c7.16,0,12.38,1.54,15.67,4.61,3.29,3.07,4.93,7.3,4.93,12.69,0,2.43-.37,4.75-1.1,6.96-.73,2.21-1.93,4.18-3.58,5.9-1.66,1.72-3.86,3.08-6.62,4.08s-6.16,1.5-10.21,1.5h-5.05v19.73h-11.76v-55.48h17.72Zm-.61,9.64h-5.35v16.47h3.87c2.2,0,4.11-.29,5.73-.87s2.87-1.49,3.76-2.73c.89-1.24,1.33-2.83,1.33-4.78,0-2.73-.76-4.76-2.28-6.09-1.52-1.33-3.87-1.99-7.06-1.99Z"></path>
  <path class="b" d="m1437.92,249.41l-4.02-13.21h-20.22l-4.02,13.21h-12.67l19.58-55.7h14.38l19.65,55.7h-12.67Zm-6.83-23.07l-4.02-12.9c-.25-.86-.59-1.97-1-3.32-.42-1.35-.83-2.73-1.25-4.14-.42-1.4-.75-2.62-1-3.66-.25,1.04-.6,2.32-1.04,3.85-.44,1.53-.87,2.98-1.27,4.35-.4,1.37-.7,2.34-.87,2.92l-3.98,12.9h14.46Z"></path>
  <path class="b" d="m1522.34,249.41h-14.95l-24.13-41.97h-.34c.1,1.75.19,3.5.27,5.27.08,1.77.15,3.54.23,5.29.08,1.76.15,3.52.23,5.29v26.11h-10.51v-55.48h14.84l24.09,41.55h.27c-.05-1.72-.11-3.43-.19-5.12-.08-1.69-.15-3.39-.21-5.08-.06-1.69-.12-3.39-.17-5.09v-26.26h10.59v55.48Z"></path>
  <path class="b" d="m1569.11,216.78l11.57-22.84h12.67l-18.4,33.88v21.59h-11.69v-21.21l-18.4-34.26h12.75l11.5,22.84Z"></path>
  <path class="c" d="m186.53,104.19c7.43-10.37,11.05-22.58,11.05-37.27,0-18.9-5.37-33.46-16.41-44.52C166.29,7.54,138.54,0,98.7,0S31.47,7.54,16.59,22.41C5.43,33.58,0,48.14,0,66.93s5.43,33.35,16.59,44.52c14.75,14.75,42.38,22.23,82.11,22.23,32.9,0,57.58-5.31,73.39-15.79l32.72,15.99v-20.97l-18.28-8.72Zm-80.46-40.37v21.7l43.98,21.73c-12.22,4.95-29.47,7.47-51.35,7.47-41.73,0-58.14-10.18-64.21-16.24-8.16-8.17-11.65-17.61-11.65-31.56s3.43-23.69,11.47-31.73c7.41-7.41,24.59-16.24,64.38-16.24s56.88,8.93,64.37,16.42c8.06,8.07,11.66,17.8,11.66,31.55,0,11.89-2.41,20.75-7.54,27.73l-61.12-30.83Z"></path>
  <path class="c" d="m378.69,3.53v68.52c0,12.79-2.94,21.44-9.53,28.02-9.38,9.37-28.43,14.12-56.62,14.12s-47.07-4.75-56.44-14.12c-6.59-6.59-9.54-15.23-9.54-28.02V3.53h-22.66v70.82c0,16.99,4.52,29.09,14.64,39.2,13.21,13.43,37.41,19.96,74,19.96s60.96-6.53,74.17-19.95c10.13-10.13,14.65-22.23,14.65-39.22V3.53h-22.67Z"></path>
  <polygon class="c" points="789.99 3.53 789.99 108.45 664.27 3.95 663.77 3.53 633.44 3.53 633.44 130.68 655.93 130.68 655.93 24.7 782.87 130.26 783.37 130.68 812.65 130.68 812.65 3.53 789.99 3.53"></polygon>
  <rect class="c" x="1043.05" y="3.53" width="22.67" height="127.15"></rect>
  <polygon class="c" points="1267.63 3.53 1191.1 113.89 1114.73 3.53 1087.92 3.53 1176.91 130.61 1177.45 131.38 1204.04 131.38 1293.57 3.53 1267.63 3.53"></polygon>
  <polygon class="c" points="1795 23.02 1795 3.53 1632.73 3.53 1632.73 130.68 1795 130.68 1795 111.19 1655.22 111.19 1655.22 75.96 1786.42 75.96 1786.42 56.83 1655.22 56.83 1655.22 23.02 1795 23.02"></polygon>
  <polygon class="c" points="832.21 3.53 832.21 23.02 914.81 23.02 914.81 130.68 937.65 130.68 937.65 23.02 1020.25 23.02 1020.25 3.53 832.21 3.53"></polygon>
  <polygon class="c" points="1424.14 3.53 1424.14 23.02 1506.74 23.02 1506.74 130.68 1529.58 130.68 1529.58 23.02 1612.19 23.02 1612.19 3.53 1424.14 3.53"></polygon>
  <path class="c" d="m1362.4,2.82h-27.8l-91.71,127.86h25.62l21.89-31.06h16l41.85,5.82.25.03,42.11-5.85h14.76l22.06,31.06h26.67L1362.4,2.82Zm-58.32,77.49l43.97-61.8,43.65,61.8h-87.63Z"></path>
  <path class="c" d="m524.38,2.82h-27.8l-91.71,127.86h25.62l21.89-31.06h16l41.85,5.82.25.03,42.11-5.85h14.77l22.06,31.06h26.67L524.38,2.82Zm-58.32,77.49l43.97-61.8,43.65,61.8h-87.63Z"></path>
</svg>
