<?xml version="1.0" encoding="utf-8"?>
<!-- Generator: Adobe Illustrator 22.0.1, SVG Export Plug-In . SVG Version: 6.00 Build 0)  -->
<svg version="1.1" id="Layer_1" xmlns="http://www.w3.org/2000/svg" xmlns:xlink="http://www.w3.org/1999/xlink" x="0px" y="0px"
	 viewBox="0 0 742 170" style="enable-background:new 0 0 742 170;" xml:space="preserve">
<style type="text/css">
	.st0{fill:#EF3E2D;}
	.st1{fill:#0A3266;}
</style>
<g>
	<g>
		<path class="st0" d="M77.1,7.9L0,85l24,24l72.1-72.1l24,24l24-24l-29-29C104.7-2.6,87.6-2.6,77.1,7.9z"/>
		<path class="st0" d="M48.1,133.1l29,29c10.5,10.5,27.6,10.5,38.2,0L192.4,85l-24-24l-72.1,72.1l-24-24L48.1,133.1z"/>
	</g>
	<g>
		<path class="st1" d="M224.5,50.2V34.1h79.9v16.2H274v89.6h-19.3V50.2H224.5z"/>
		<path class="st1" d="M337.5,131.3H337c-4.7,6-12.7,10.2-22.6,10.2c-15.4,0-24-11.1-24-22.8c0-19.3,17.1-29,45.3-28.9v-1.3
			c0-5-2-13.3-15.5-13.3c-7.5,0-15.4,2.4-20.6,5.6l-3.8-12.6c5.6-3.5,15.5-6.7,27.6-6.7c24.5,0,31.5,15.5,31.5,32.2v27.6
			c0,6.9,0.3,13.7,1.1,18.4h-17.2L337.5,131.3z M336.2,102.5c-13.7-0.3-26.7,2.7-26.7,14.3c0,7.5,4.9,11,11,11
			c7.7,0,13.3-5,15.1-10.5c0.5-1.4,0.6-3,0.6-4.2V102.5z"/>
		<path class="st1" d="M366,86.2c0-8.8-0.2-16.2-0.6-22.8h16.9l0.9,11.5h0.5c3.3-6,11.6-13.2,24.3-13.2c13.3,0,27.1,8.6,27.1,32.8
			v45.3h-19.3V96.7c0-11-4.1-19.3-14.6-19.3c-7.7,0-13,5.5-15.1,11.3c-0.6,1.7-0.8,4.1-0.8,6.3v44.9H366V86.2z"/>
		<path class="st1" d="M519.2,28.4v89.9c0,7.8,0.3,16.3,0.6,21.5h-17.3l-0.8-12.1h-0.3c-4.6,8.5-13.8,13.8-24.9,13.8
			c-18.2,0-32.6-15.5-32.6-39.1c-0.2-25.6,15.8-40.8,34.2-40.8c10.5,0,18,4.4,21.5,10h0.3V28.4H519.2z M499.4,90.3
			c-1.7-7.5-7.8-13.7-16.6-13.7c-12.4,0-19.3,11-19.3,25.3c0,14,6.9,24.2,19.1,24.2c7.8,0,14.7-5.3,16.6-13.7
			c0.5-1.7,0.6-3.6,0.6-5.6V95.3C499.8,93.3,499.7,91.8,499.4,90.3z"/>
		<path class="st1" d="M546.7,107c0.5,13.8,11.3,19.8,23.5,19.8c8.9,0,15.4-1.3,21.2-3.5l2.8,13.3c-6.6,2.7-15.7,4.7-26.7,4.7
			c-24.8,0-39.4-15.2-39.4-38.6c0-21.2,12.9-41.1,37.3-41.1c24.8,0,33,20.4,33,37.2c0,3.6-0.3,6.4-0.6,8.2H546.7z M580.3,93.6
			c0.2-7.1-3-18.7-15.8-18.7c-11.9,0-16.9,10.8-17.7,18.7C546.8,93.6,580.3,93.6,580.3,93.6z"/>
		<path class="st1" d="M606.7,63.4h16.6l0.8,11.3h0.5c3.8-6,10.7-13,23.5-13c10,0,17.9,5.6,21.2,14.1h0.3c2.7-4.2,5.8-7.4,9.4-9.6
			c4.2-3,9.1-4.6,15.4-4.6c12.7,0,25.6,8.6,25.6,33.1v45h-18.8V97.6c0-12.7-4.4-20.2-13.7-20.2c-6.6,0-11.5,4.7-13.5,10.2
			c-0.5,1.9-0.9,4.2-0.9,6.4v45.8h-18.8V95.6c0-10.7-4.2-18.2-13.2-18.2c-7.2,0-12.1,5.6-13.8,11c-0.8,1.9-1.1,4.1-1.1,6.3v45.2
			h-18.8V86.2C607.4,78.7,607.1,70,606.7,63.4z"/>
		<g>
			<path class="st1" d="M741.9,68.7c0,4-3.1,7.1-7.2,7.1c-4,0-7.2-3.1-7.2-7.1c0-3.9,3.2-7,7.2-7C738.8,61.7,741.9,64.8,741.9,68.7z
				 M729.4,68.7c0,3.1,2.3,5.6,5.5,5.6c3.1,0,5.3-2.5,5.3-5.5c0-3.1-2.3-5.6-5.4-5.6C731.7,63.1,729.4,65.6,729.4,68.7z M733.7,72.3
				h-1.6v-7c0.6-0.1,1.5-0.2,2.7-0.2c1.3,0,1.9,0.2,2.4,0.5c0.4,0.3,0.7,0.9,0.7,1.5c0,0.8-0.6,1.4-1.4,1.6v0.1
				c0.7,0.3,1.1,0.8,1.3,1.7c0.2,1.1,0.3,1.5,0.5,1.7h-1.7c-0.2-0.3-0.3-0.9-0.6-1.7c-0.1-0.8-0.6-1.1-1.4-1.1h-0.8V72.3z
				 M733.7,68.4h0.8c0.9,0,1.6-0.3,1.6-1c0-0.6-0.5-1.1-1.5-1.1c-0.4,0-0.7,0-0.9,0.1V68.4z"/>
		</g>
	</g>
</g>
</svg>
