<?xml version="1.0" encoding="UTF-8" standalone="no"?>
<!DOCTYPE svg PUBLIC "-//W3C//DTD SVG 1.1//EN" "http://www.w3.org/Graphics/SVG/1.1/DTD/svg11.dtd">
<svg width="100%" height="100%" viewBox="0 0 345 82" version="1.1" xmlns="http://www.w3.org/2000/svg" xmlns:xlink="http://www.w3.org/1999/xlink" xml:space="preserve" xmlns:serif="http://www.serif.com/" style="fill-rule:evenodd;clip-rule:evenodd;stroke-linejoin:round;stroke-miterlimit:2;">
    <g transform="matrix(1,0,0,1,-49.63,-22.37)">
        <g>
            <path d="M56.35,103.06C54.8,102.24 53.58,101.1 52.7,99.65C51.82,98.2 51.38,96.56 51.38,94.74C51.38,92.92 51.83,91.28 52.72,89.83C53.61,88.38 54.83,87.24 56.38,86.42C57.93,85.6 59.67,85.19 61.6,85.19C63.16,85.19 64.59,85.46 65.88,85.99C67.17,86.52 68.26,87.29 69.15,88.3L66.86,90.4C65.48,88.95 63.78,88.22 61.77,88.22C60.46,88.22 59.29,88.5 58.26,89.06C57.23,89.62 56.42,90.39 55.84,91.38C55.26,92.37 54.97,93.5 54.97,94.75C54.97,96.01 55.26,97.13 55.84,98.12C56.42,99.11 57.23,99.89 58.26,100.44C59.29,101 60.47,101.28 61.77,101.28C63.79,101.28 65.48,100.55 66.86,99.08L69.15,101.2C68.26,102.21 67.17,102.98 65.87,103.51C64.57,104.04 63.14,104.31 61.58,104.31C59.64,104.3 57.91,103.89 56.35,103.06Z" style="fill:rgb(246,146,32);fill-rule:nonzero;"/>
            <path d="M92.67,103.07C91.11,102.25 89.88,101.1 88.99,99.64C88.1,98.18 87.65,96.55 87.66,94.74C87.66,92.93 88.1,91.3 89,89.84C89.89,88.38 91.11,87.24 92.68,86.42C94.24,85.6 95.99,85.19 97.94,85.19C99.88,85.19 101.63,85.6 103.19,86.43C104.75,87.25 105.98,88.39 106.87,89.84C107.76,91.29 108.2,92.93 108.2,94.75C108.2,96.57 107.75,98.21 106.86,99.66C105.97,101.11 104.74,102.25 103.18,103.07C101.62,103.89 99.87,104.3 97.92,104.3C95.98,104.3 94.23,103.89 92.67,103.07ZM101.36,100.44C102.38,99.88 103.18,99.1 103.76,98.1C104.34,97.1 104.63,95.98 104.63,94.74C104.63,93.5 104.34,92.38 103.76,91.38C103.18,90.38 102.38,89.6 101.36,89.04C100.34,88.48 99.2,88.2 97.93,88.2C96.66,88.2 95.51,88.48 94.5,89.04C93.48,89.6 92.68,90.38 92.1,91.38C91.52,92.38 91.23,93.5 91.23,94.74C91.23,95.98 91.52,97.1 92.1,98.1C92.68,99.1 93.48,99.88 94.5,100.44C95.52,101 96.66,101.28 97.93,101.28C99.2,101.28 100.34,101 101.36,100.44Z" style="fill:rgb(246,146,32);fill-rule:nonzero;"/>
            <path d="M146.35,104.05L146.33,91.73L140.06,101.93L138.48,101.93L132.22,91.89L132.22,104.05L128.84,104.05L128.84,85.46L131.75,85.46L139.32,97.78L146.76,85.46L149.67,85.46L149.69,104.05L146.35,104.05Z" style="fill:rgb(246,146,32);fill-rule:nonzero;"/>
            <path d="M183.89,86.26C185.11,86.79 186.05,87.55 186.71,88.54C187.36,89.53 187.69,90.71 187.69,92.07C187.69,93.42 187.36,94.59 186.71,95.59C186.06,96.59 185.12,97.36 183.89,97.89C182.67,98.42 181.23,98.69 179.57,98.69L175.27,98.69L175.27,104.05L171.73,104.05L171.73,85.46L179.57,85.46C181.23,85.47 182.67,85.73 183.89,86.26ZM182.92,94.81C183.72,94.17 184.12,93.26 184.12,92.08C184.12,90.89 183.72,89.98 182.92,89.34C182.12,88.7 180.95,88.38 179.41,88.38L175.27,88.38L175.27,95.76L179.41,95.76C180.95,95.77 182.12,95.45 182.92,94.81Z" style="fill:rgb(246,146,32);fill-rule:nonzero;"/>
            <path d="M208.12,85.47L211.66,85.47L211.66,101.14L221.63,101.14L221.63,104.06L208.12,104.06L208.12,85.47Z" style="fill:rgb(246,146,32);fill-rule:nonzero;"/>
            <rect x="241.31" y="85.47" width="3.54" height="18.59" style="fill:rgb(246,146,32);fill-rule:nonzero;"/>
            <path d="M279.25,99.77L269.72,99.77L267.84,104.07L264.19,104.07L272.77,85.48L276.26,85.48L284.86,104.07L281.16,104.07L279.25,99.77ZM278.08,97.06L274.49,88.93L270.92,97.05L278.08,97.06Z" style="fill:rgb(246,146,32);fill-rule:nonzero;"/>
            <path d="M321.11,85.49L321.11,104.08L318.2,104.08L307.69,91.49L307.69,104.08L304.18,104.08L304.18,85.49L307.09,85.49L317.6,98.08L317.6,85.49L321.11,85.49Z" style="fill:rgb(246,146,32);fill-rule:nonzero;"/>
            <path d="M346.72,103.11C345.17,102.29 343.95,101.15 343.07,99.7C342.19,98.25 341.75,96.61 341.75,94.79C341.75,92.97 342.2,91.33 343.09,89.88C343.98,88.43 345.2,87.29 346.75,86.47C348.3,85.65 350.04,85.24 351.97,85.24C353.53,85.24 354.96,85.51 356.25,86.04C357.54,86.57 358.63,87.34 359.52,88.35L357.23,90.45C355.85,89 354.15,88.27 352.14,88.27C350.83,88.27 349.66,88.55 348.63,89.11C347.6,89.67 346.79,90.44 346.21,91.43C345.63,92.42 345.34,93.55 345.34,94.8C345.34,96.06 345.63,97.18 346.21,98.17C346.79,99.16 347.6,99.94 348.63,100.49C349.66,101.05 350.84,101.33 352.14,101.33C354.16,101.33 355.85,100.6 357.23,99.13L359.52,101.25C358.63,102.26 357.54,103.03 356.24,103.56C354.94,104.09 353.51,104.36 351.95,104.36C350.01,104.35 348.27,103.93 346.72,103.11Z" style="fill:rgb(246,146,32);fill-rule:nonzero;"/>
            <path d="M394.09,101.19L394.09,104.08L379.79,104.08L379.79,85.49L393.71,85.49L393.71,88.38L383.33,88.38L383.33,93.21L392.54,93.21L392.54,96.05L383.33,96.05L383.33,101.18L394.09,101.19Z" style="fill:rgb(246,146,32);fill-rule:nonzero;"/>
        </g>
        <g>
            <g>
                <path d="M57.91,73.88C55.33,72.51 53.3,70.62 51.83,68.2C50.36,65.78 49.63,63.06 49.63,60.02C49.63,56.98 50.37,54.26 51.85,51.84C53.33,49.42 55.36,47.53 57.95,46.16C60.53,44.79 63.43,44.1 66.63,44.1C69.23,44.1 71.6,44.54 73.75,45.43C75.9,46.31 77.71,47.6 79.19,49.28L75.38,52.77C73.08,50.35 70.26,49.14 66.9,49.14C64.72,49.14 62.77,49.6 61.05,50.53C59.33,51.46 57.98,52.75 57.01,54.4C56.04,56.05 55.56,57.92 55.56,60.01C55.56,62.1 56.04,63.97 57.01,65.62C57.98,67.27 59.32,68.56 61.05,69.49C62.77,70.42 64.72,70.88 66.9,70.88C70.26,70.88 73.08,69.66 75.38,67.21L79.19,70.75C77.71,72.43 75.89,73.71 73.73,74.6C71.57,75.48 69.19,75.93 66.59,75.93C63.39,75.94 60.49,75.25 57.91,73.88Z" style="fill:rgb(0,99,52);fill-rule:nonzero;"/>
                <path d="M154.19,44.55L154.19,75.5L149.34,75.5L131.84,54.54L131.84,75.5L125.99,75.5L125.99,44.55L130.84,44.55L148.34,65.51L148.34,44.55L154.19,44.55Z" style="fill:rgb(0,99,52);fill-rule:nonzero;"/>
                <path d="M170.97,49.41L160.45,49.41L160.45,44.55L187.38,44.55L187.38,49.41L176.86,49.41L176.86,75.5L170.97,75.5L170.97,49.41Z" style="fill:rgb(0,99,52);fill-rule:nonzero;"/>
                <path d="M214.4,75.5L207.92,66.44C207.65,66.47 207.24,66.48 206.7,66.48L199.54,66.48L199.54,75.5L193.65,75.5L193.65,44.55L206.71,44.55C209.46,44.55 211.86,44.99 213.9,45.88C215.94,46.76 217.5,48.03 218.59,49.68C219.68,51.33 220.22,53.29 220.22,55.56C220.22,57.89 219.64,59.89 218.47,61.57C217.31,63.25 215.64,64.5 213.46,65.33L220.76,75.5L214.4,75.5ZM212.27,51C210.94,49.94 208.99,49.41 206.42,49.41L199.53,49.41L199.53,61.74L206.42,61.74C208.99,61.74 210.94,61.2 212.27,60.13C213.6,59.05 214.26,57.53 214.26,55.55C214.27,53.58 213.6,52.06 212.27,51Z" style="fill:rgb(0,99,52);fill-rule:nonzero;"/>
                <path d="M249.18,68.33L233.31,68.33L230.18,75.49L224.1,75.49L238.38,44.54L244.18,44.54L258.51,75.49L252.34,75.49L249.18,68.33ZM247.23,63.82L241.24,50.29L235.3,63.82L247.23,63.82Z" style="fill:rgb(0,99,52);fill-rule:nonzero;"/>
                <path d="M269.92,73.88C267.34,72.51 265.31,70.62 263.84,68.2C262.37,65.78 261.64,63.06 261.64,60.02C261.64,56.98 262.38,54.26 263.86,51.84C265.34,49.42 267.37,47.53 269.96,46.16C272.54,44.79 275.44,44.1 278.64,44.1C281.24,44.1 283.61,44.54 285.76,45.43C287.91,46.31 289.72,47.6 291.2,49.28L287.39,52.77C285.09,50.35 282.27,49.14 278.91,49.14C276.73,49.14 274.78,49.6 273.06,50.53C271.34,51.46 269.99,52.75 269.02,54.4C268.05,56.05 267.57,57.92 267.57,60.01C267.57,62.1 268.05,63.97 269.02,65.62C269.99,67.27 271.33,68.56 273.06,69.49C274.78,70.42 276.73,70.88 278.91,70.88C282.27,70.88 285.09,69.66 287.39,67.21L291.2,70.75C289.72,72.43 287.9,73.71 285.74,74.6C283.58,75.48 281.2,75.93 278.6,75.93C275.4,75.94 272.51,75.25 269.92,73.88Z" style="fill:rgb(0,99,52);fill-rule:nonzero;"/>
                <path d="M304.77,49.41L294.25,49.41L294.25,44.55L321.18,44.55L321.18,49.41L310.66,49.41L310.66,75.5L304.77,75.5L304.77,49.41Z" style="fill:rgb(0,99,52);fill-rule:nonzero;"/>
                <path d="M387.74,75.5L381.26,66.44C380.99,66.47 380.58,66.48 380.04,66.48L372.88,66.48L372.88,75.5L366.99,75.5L366.99,44.55L380.05,44.55C382.8,44.55 385.2,44.99 387.24,45.88C389.28,46.76 390.84,48.03 391.93,49.68C393.02,51.33 393.56,53.29 393.56,55.56C393.56,57.89 392.98,59.89 391.81,61.57C390.65,63.25 388.98,64.5 386.8,65.33L394.1,75.5L387.74,75.5ZM385.61,51C384.28,49.94 382.33,49.41 379.76,49.41L372.87,49.41L372.87,61.74L379.76,61.74C382.33,61.74 384.28,61.2 385.61,60.13C386.94,59.05 387.6,57.53 387.6,55.55C387.61,53.58 386.94,52.06 385.61,51Z" style="fill:rgb(0,99,52);fill-rule:nonzero;"/>
                <g>
                    <g>
                        <path d="M115.5,50.3C115,45.38 112.48,41.64 107.43,39.07C107.03,41.04 106.65,42.86 106.28,44.69C106.12,45.46 105.98,46.32 104.8,46.1C103.62,45.89 103.89,44.97 104.01,44.25C104.31,42.53 104.67,40.82 105.02,39.11C105.34,37.53 104.83,36.72 103.13,36.58C102.36,36.52 101.59,36.49 100.82,36.48C100.05,36.48 99.27,36.51 98.51,36.58C96.8,36.72 96.29,37.53 96.62,39.11C96.97,40.82 97.33,42.53 97.63,44.25C97.76,44.97 98.03,45.88 96.84,46.1C95.66,46.31 95.52,45.45 95.36,44.69C94.99,42.86 94.61,41.04 94.21,39.07C89.17,41.64 86.64,45.38 86.14,50.3L115.5,50.3Z" style="fill:rgb(246,146,32);fill-rule:nonzero;"/>
                        <path d="M116.98,51.22L84.67,51.22C83.69,51.63 83.35,52.24 83.47,53.17C83.62,54.36 84.51,54.89 86.39,54.89C88.53,54.9 90.68,54.89 92.82,54.89L108.84,54.89C110.98,54.89 113.13,54.9 115.27,54.89C117.15,54.89 118.04,54.35 118.19,53.17C118.3,52.23 117.96,51.62 116.98,51.22Z" style="fill:rgb(246,146,32);fill-rule:nonzero;"/>
                    </g>
                </g>
                <path d="M111.57,56.94C111.84,57.91 111.97,58.94 111.97,60.02C111.97,62.08 111.49,63.95 110.52,65.61C109.55,67.28 108.22,68.57 106.53,69.5C104.84,70.43 102.93,70.89 100.82,70.89C98.7,70.89 96.8,70.43 95.11,69.5C93.42,68.57 92.09,67.27 91.12,65.61C90.15,63.95 89.67,62.08 89.67,60.02C89.67,58.94 89.81,57.91 90.07,56.94L84.01,56.94C83.82,57.93 83.73,58.96 83.73,60.02C83.73,63.03 84.47,65.75 85.95,68.18C87.43,70.61 89.47,72.51 92.07,73.88C94.67,75.25 97.59,75.94 100.82,75.94C104.05,75.94 106.97,75.25 109.57,73.88C112.17,72.51 114.21,70.62 115.69,68.2C117.17,65.78 117.91,63.06 117.91,60.02C117.91,58.95 117.81,57.93 117.63,56.94L111.57,56.94Z" style="fill:rgb(0,99,52);fill-rule:nonzero;"/>
                <g>
                    <path d="M334.82,51.37C335.22,51.07 335.65,50.79 336.1,50.54C337.79,49.61 339.7,49.15 341.81,49.15C343.93,49.15 345.83,49.61 347.52,50.54C347.67,50.62 347.82,50.72 347.97,50.81L352.07,47.07C351.59,46.75 351.09,46.44 350.56,46.16C347.96,44.79 345.04,44.1 341.81,44.1C338.58,44.1 335.66,44.79 333.06,46.16C332.03,46.7 332.61,46.22 331.76,46.93L334.82,51.37Z" style="fill:rgb(0,99,52);fill-rule:nonzero;"/>
                    <path d="M354.4,48.96L350.63,53.14C350.95,53.54 351.25,53.97 351.52,54.43C352.49,56.1 352.97,57.96 352.97,60.02C352.97,62.08 352.49,63.95 351.52,65.61C350.55,67.28 349.22,68.57 347.53,69.5C345.84,70.43 343.93,70.89 341.82,70.89C339.7,70.89 337.8,70.43 336.11,69.5C334.42,68.57 333.09,67.27 332.12,65.61C331.15,63.95 330.67,62.08 330.67,60.02C330.67,57.96 331.15,56.09 332.12,54.43C332.36,54.01 332.63,53.62 332.92,53.24L329.31,48.9C328.41,49.78 327.62,50.77 326.96,51.86C325.48,54.29 324.74,57.01 324.74,60.02C324.74,63.03 325.48,65.75 326.96,68.18C328.44,70.61 330.48,72.51 333.08,73.88C335.68,75.25 338.6,75.94 341.83,75.94C345.06,75.94 347.98,75.25 350.58,73.88C353.18,72.51 355.22,70.62 356.7,68.2C358.18,65.78 358.92,63.06 358.92,60.02C358.92,56.98 358.18,54.26 356.7,51.84C356.03,50.78 355.27,49.82 354.4,48.96Z" style="fill:rgb(0,99,52);fill-rule:nonzero;"/>
                </g>
                <path d="M374.75,22.37L341.37,59.36L325.98,40.87L341.78,52.41L374.75,22.37Z" style="fill:rgb(246,146,32);fill-rule:nonzero;"/>
            </g>
        </g>
    </g>
</svg>
