<svg width="174" height="28" fill="none" xmlns="http://www.w3.org/2000/svg"><path d="M46.998 5.462h-4.114v17.143h4.114V5.462z" fill="#fff"/><path fill-rule="evenodd" clip-rule="evenodd" d="M34.569 22.68c-2.425 0-4.447-.785-6.086-2.357-1.64-1.595-2.448-3.639-2.448-6.131 0-2.515.831-4.582 2.47-6.198 1.662-1.64 3.683-2.448 6.086-2.448 2.965 0 5.592 1.28 7.12 3.278l-2.673 2.808c-1.28-1.37-2.673-2.066-4.177-2.066-1.28 0-2.336.426-3.211 1.302-.854.876-1.28 1.976-1.28 3.301 0 1.28.426 2.358 1.28 3.234.875.854 1.93 1.28 3.188 1.28 1.64 0 3.077-.718 4.267-2.133l2.785 2.672c-.764 1.01-1.797 1.842-3.077 2.493-1.28.651-2.695.965-4.244.965zM53.17 6.834a2.228 2.228 0 11-4.457 0 2.228 2.228 0 014.456 0zm-.172 3.257h-4.114v12.514h4.114V10.09zM60.95 22.703c-1.953 0-3.525-.606-4.76-1.82-1.213-1.212-1.82-2.761-1.82-4.67 0-1.909.607-3.459 1.842-4.671 1.235-1.213 2.83-1.82 4.806-1.82 2.583 0 4.85 1.258 5.906 3.616L63.758 15c-.629-1.055-1.505-1.594-2.65-1.594-.83 0-1.505.27-2.044.808-.516.54-.786 1.213-.786 1.999 0 1.64 1.19 2.852 2.785 2.852 1.145 0 2.2-.629 2.65-1.595l3.166 1.887c-1.078 2.066-3.3 3.346-5.928 3.346zM72.027 5.462h-4.114v17.143h4.114V18.24l.482-.45 3.76 4.814h4.787l-5.778-7.396 5.489-5.118h-5.028l-3.712 3.462v-8.09zM81.798 16.127V5.462h4.286v10.426c0 1.864 1.086 2.762 2.657 2.762 1.548 0 2.657-.943 2.657-2.762V5.462h4.286v10.665c0 4.896-3.437 6.737-6.943 6.737-3.483 0-6.943-1.841-6.943-6.737zM104.941 22.948c3.314 0 6-2.917 6-6.515 0-3.597-2.686-6.514-6-6.514a5.672 5.672 0 00-3.6 1.303V10.09h-3.943v17.657h3.943v-6.103a5.672 5.672 0 003.6 1.303zm-3.6-6.508v-.013c.004-1.607 1.268-2.908 2.828-2.908 1.563 0 2.829 1.305 2.829 2.914 0 1.61-1.266 2.915-2.829 2.915-1.56 0-2.824-1.301-2.828-2.908z" fill="#fff"/><path fill-rule="evenodd" clip-rule="evenodd" d="M15.639 2.29c-.227-.781-1.42-.781-1.647 0l-.32 1.107c-.692 2.386-1.636 4.249-4.203 4.891l-1.192.298a.78.78 0 000 1.53l1.192.298c2.567.643 3.511 2.506 4.203 4.891l.32 1.107c.227.782 1.42.782 1.647 0l.32-1.107c.692-2.385 1.637-4.248 4.204-4.89l1.19-.299a.78.78 0 000-1.53l-1.19-.298c-2.567-.642-3.512-2.505-4.204-4.89l-.32-1.108z" fill="url(#prefix__paint0_linear_5180_104025)"/><path fill-rule="evenodd" clip-rule="evenodd" d="M5.752 13.541c-.136-.488-.852-.488-.987 0l-.193.692c-.415 1.49-.981 2.655-2.522 3.057l-.714.186a.491.491 0 000 .956l.714.187c1.54.401 2.107 1.566 2.522 3.056l.193.692c.135.489.851.489.987 0l.193-.692c.414-1.49.982-2.655 2.522-3.056l.714-.187a.491.491 0 000-.956l-.714-.186c-1.54-.401-2.108-1.566-2.522-3.057l-.193-.692z" fill="url(#prefix__paint1_linear_5180_104025)"/><path d="M160.378 22.608v-12.51h3.898v1.745c.567-1.088 1.995-2.085 3.921-2.085 2.47 0 4.828 1.654 4.828 5.168v7.682h-4.011v-6.617c0-1.655-.839-2.584-2.199-2.584-1.428 0-2.447 1.065-2.447 2.697v6.504h-3.99zM139.456 10.045c-.52-.191-1.352-.287-1.788-.287-1.292 0-2.516.59-3.332 1.881v-1.541h-3.83v12.51h3.989v-5.393c0-.38.04-.76.133-1.127.147-.58.432-1.078.819-1.527.18-.208.392-.383.621-.533.378-.247.821-.39 1.271-.416.214-.013.422.007.633.046l1.484-3.613z" fill="#fff"/><path d="M156.573 8.837c-1.314 0-2.311-.975-2.311-2.312 0-1.337 1.02-2.267 2.311-2.267 1.292 0 2.29.975 2.29 2.267 0 1.292-.998 2.312-2.29 2.312zm2.017 13.771h-4.011v-12.51h4.011v12.51z" fill="url(#prefix__paint2_linear_5180_104025)"/><path d="M149.029 10.098h3.761v12.51h-3.761V21.52c-.885.816-2.085 1.405-3.695 1.405-3.626 0-6.119-2.923-6.119-6.617s2.584-6.528 6.119-6.528c1.61 0 2.811.612 3.695 1.45v-1.133zm-2.947 9.179c1.655 0 2.901-1.338 2.901-2.947s-1.246-2.9-2.901-2.9c-1.654 0-2.878 1.336-2.878 2.9 0 1.564 1.224 2.947 2.878 2.947z" fill="url(#prefix__paint3_linear_5180_104025)"/><path d="M125.995 13.439c2.153.521 3.173 2.289 3.173 4.26 0 2.811-2.13 4.941-5.393 4.941h-8.228V5.892h7.842c3.286 0 4.895 2.107 4.895 4.147 0 1.473-.929 2.902-2.289 3.4zm-3.399-3.966h-2.901v2.833h2.719c1.27 0 1.722-.748 1.722-1.428 0-.725-.544-1.405-1.541-1.405h.001zm.272 9.541c1.428 0 1.949-.884 1.949-1.654 0-.838-.567-1.677-1.859-1.677h-3.263v3.331h3.173z" fill="#fff"/><defs><linearGradient id="prefix__paint0_linear_5180_104025" x1="14.682" y1="16.807" x2="22.023" y2="2.125" gradientUnits="userSpaceOnUse"><stop stop-color="#FF02F0"/><stop offset="1" stop-color="#FFC800"/></linearGradient><linearGradient id="prefix__paint1_linear_5180_104025" x1="5.048" y1="22.772" x2="9.637" y2="13.595" gradientUnits="userSpaceOnUse"><stop stop-color="#8930FD"/><stop offset="1" stop-color="#49CCF9"/></linearGradient><linearGradient id="prefix__paint2_linear_5180_104025" x1="133.194" y1="37.484" x2="168.885" y2="3.055" gradientUnits="userSpaceOnUse"><stop offset=".08" stop-color="#8930FD"/><stop offset=".232" stop-color="#4BC9FA"/><stop offset=".542" stop-color="#FF02F0"/><stop offset=".974" stop-color="#FFC800"/></linearGradient><linearGradient id="prefix__paint3_linear_5180_104025" x1="133.194" y1="37.484" x2="168.885" y2="3.055" gradientUnits="userSpaceOnUse"><stop offset=".08" stop-color="#8930FD"/><stop offset=".232" stop-color="#4BC9FA"/><stop offset=".542" stop-color="#FF02F0"/><stop offset=".974" stop-color="#FFC800"/></linearGradient></defs></svg>
