<?xml version="1.0" encoding="UTF-8"?>
<svg width="138px" height="34px" viewBox="0 0 138 34" version="1.1" xmlns="http://www.w3.org/2000/svg" xmlns:xlink="http://www.w3.org/1999/xlink">
    <title>Group 79</title>
    <defs>
        <polygon id="path-1" points="0.320598438 0.279288519 4.09223906 0.279288519 4.09223906 4.29619565 0.320598438 4.29619565"></polygon>
        <polygon id="path-3" points="0.147739063 0.279073709 2.52572344 0.279073709 2.52572344 4.29619565 0.147739063 4.29619565"></polygon>
        <polygon id="path-5" points="0.276359375 0.279288519 4.048 0.279288519 4.048 4.29619565 0.276359375 4.29619565"></polygon>
        <path d="M9.20482,1.48463514 C14.0947,8.15217568 14.47312,18.3735 9.20482,24.1026081 L9.20482,24.1026081 C8.36536,25.0144054 7.38412,25.8141892 6.25362,26.4665676 L6.25362,26.4665676 C7.31544,26.7059189 8.29906,26.8212162 9.20482,26.8135541 L9.20482,26.8135541 C12.07034,26.792027 14.15624,25.5376216 15.46082,23.0510676 L15.46082,23.0510676 C16.06772,21.8849595 16.39276,20.5867703 16.49204,19.2145135 L16.49204,19.2145135 L16.49204,17.2902162 C16.1075,11.5271757 12.46678,4.96763514 9.20482,1.29782432 L9.20482,1.29782432 C8.8859,0.938797297 8.57004,0.606040541 8.26098,0.306121622 L8.26098,0.306121622 C8.59214,0.684121622 8.90698,1.07817568 9.20482,1.48463514 L9.20482,1.48463514 Z M9.20482,3.12397297 C10.27684,6.97840541 10.09392,10.3285946 9.20482,13.1555676 L9.20482,13.1555676 C7.5004,18.5778243 3.19974,22.0728649 0.1836,23.4987568 L0.1836,23.4987568 C1.58474,24.5878784 3.0719,25.4996757 5.04186,26.1192162 L5.04186,26.1192162 C6.74084,25.2271216 8.1226,24.0161351 9.20482,22.5858649 L9.20482,22.5858649 C13.38954,17.0581622 13.08592,8.25324324 9.20482,1.91554054 L9.20482,1.91554054 C8.9454,1.49193243 8.67068,1.07781081 8.3793,0.677918919 L8.3793,0.677918919 C8.71148,1.51455405 8.98416,2.32966216 9.20482,3.12397297 L9.20482,3.12397297 Z" id="path-7"></path>
        <path d="M15.4235294,0.178615385 C14.1441176,0.196961538 12.9003529,0.521307692 11.7095294,1.07446154 L11.7095294,1.07446154 C5.82458824,3.80873077 1.23917647,12.1766538 0.106235294,17.3166923 L0.106235294,17.3166923 C1.80705882,11.7778846 6.42847059,7.26403846 11.7095294,5.54226923 L11.7095294,5.54226923 C15.4298824,4.32934615 19.4774118,4.50034615 23.0632941,6.67730769 L23.0632941,6.67730769 C21.6158824,2.34415385 19.0997647,0.177923077 15.5156471,0.177923077 L15.5156471,0.177923077 C15.4852941,0.177923077 15.4542353,0.178269231 15.4235294,0.178615385 L15.4235294,0.178615385 Z M11.7095294,6.48484615 C6.78423529,8.06503846 2.40352941,12.0665769 0.356470588,17.0356154 L0.356470588,17.0356154 C3.85411765,12.4708846 7.89423529,10.5909231 11.7095294,10.1886923 L11.7095294,10.1886923 C16.6387059,9.66946154 21.1937647,11.6165769 23.7275294,13.437 L23.7275294,13.437 C23.9128235,11.6844231 23.9047059,9.9405 23.4017647,7.90996154 L23.4017647,7.90996154 C21.1429412,6.41942308 18.6868235,5.75584615 16.2324706,5.75584615 L16.2324706,5.75584615 C14.7081176,5.75619231 13.1841176,6.012 11.7095294,6.48484615 L11.7095294,6.48484615 Z" id="path-9"></path>
    </defs>
    <g id="Layout-B" stroke="none" stroke-width="1" fill="none" fill-rule="evenodd">
        <g id="home-alt" transform="translate(-651.000000, -45.000000)">
            <g id="Group-79" transform="translate(651.000000, 45.000000)">
                <g id="Group-70">
                    <path d="M41.7260969,29.507847 C41.7260969,28.8637757 41.7735344,28.8226038 42.2597687,28.7868022 L42.2597687,28.650756 L40.6943312,28.650756 L40.6943312,28.7868022 C41.1802062,28.8226038 41.2276437,28.8637757 41.2276437,29.507847 L41.2276437,31.6341058 C41.2276437,32.2781772 41.1802062,32.319349 40.6943312,32.3547927 L40.6943312,32.4908389 L42.2597687,32.4908389 L42.2597687,32.3547927 C41.7735344,32.319349 41.7260969,32.2781772 41.7260969,31.6341058 L41.7260969,29.507847 Z" id="Fill-1" fill="#FEFEFE"></path>
                    <path d="M46.4337656,30.2168625 C46.4337656,29.5967783 46.4574844,29.2770697 46.4812031,29.0941234 C46.5110312,28.887548 46.6652031,28.7987599 46.9911562,28.7869454 L46.9911562,28.6508992 L45.5680312,28.6508992 L45.5680312,28.7869454 C45.9593906,28.8048462 46.1196719,28.887548 46.1491406,29.0941234 C46.1728594,29.2770697 46.1965781,29.5967783 46.1965781,30.2168625 L46.1965781,31.6285208 L46.1847187,31.6285208 L43.6881406,28.6508992 L42.8224063,28.6508992 L42.8224063,28.7869454 C43.0718125,28.8048462 43.2317344,28.8463761 43.3442188,28.9881505 C43.4509531,29.1238387 43.4570625,29.217997 43.4570625,29.6429624 L43.4570625,30.9257348 C43.4570625,31.546177 43.4333437,31.8651696 43.409625,32.0477579 C43.3801562,32.2543333 43.225625,32.3427633 42.8996719,32.3549359 L42.8996719,32.4909821 L44.3227969,32.4909821 L44.3227969,32.3549359 C43.9314375,32.3377511 43.7715156,32.2543333 43.7416875,32.0477579 C43.7179687,31.8651696 43.69425,31.546177 43.69425,30.9257348 L43.69425,29.4188442 L43.7061094,29.4188442 L46.2795937,32.5321539 L46.4337656,32.5321539 L46.4337656,30.2168625 Z" id="Fill-3" fill="#FEFEFE"></path>
                    <path d="M49.3905594,28.8463403 L49.7876688,28.8463403 C50.1556688,28.8463403 50.3396688,28.8875122 50.4402938,29.0002873 C50.5290594,29.0940876 50.5944656,29.2594911 50.6537625,29.54304 L50.8021844,29.5251392 C50.7723563,29.1825176 50.7428875,28.751824 50.7367781,28.5033607 L50.6537625,28.5033607 C50.5588875,28.6150618 50.5290594,28.6508634 50.3748875,28.6508634 L47.944075,28.6508634 C47.7837938,28.6508634 47.7244969,28.6390488 47.6353719,28.5033607 L47.5527156,28.5033607 C47.5408563,28.8048104 47.5052781,29.1825176 47.4815594,29.54304 L47.6296219,29.54304 C47.7007781,29.2834782 47.7719344,29.1177166 47.8373406,29.0350149 C47.9261063,28.9233138 48.0863875,28.8463403 48.61395,28.8463403 L48.8924656,28.8463403 L48.8924656,31.6342132 C48.8924656,32.2782846 48.8450281,32.3190984 48.2879969,32.3549001 L48.2879969,32.4909463 L50.0194656,32.4909463 L50.0194656,32.3549001 C49.4383563,32.3190984 49.3905594,32.2782846 49.3905594,31.6342132 L49.3905594,28.8463403 Z" id="Fill-5" fill="#FEFEFE"></path>
                    <path d="M51.9159953,31.634249 C51.9159953,32.2783204 51.8685578,32.3191342 51.3348859,32.3549359 L51.3348859,32.4909821 L54.1394484,32.4909821 C54.1872453,32.3309488 54.3180578,31.7294814 54.3475266,31.5637198 L54.1994641,31.546177 C54.1099797,31.8175534 54.0151047,32.0176845 53.9144797,32.1250894 C53.7836672,32.2665058 53.5055109,32.2955052 53.1669797,32.2955052 C52.8884641,32.2955052 52.6749953,32.2955052 52.5625109,32.224976 C52.4496672,32.1544467 52.4140891,31.9768707 52.4140891,31.6406933 L52.4140891,30.5945697 L53.0131672,30.5945697 C53.2679641,30.5945697 53.3984172,30.6063842 53.4756828,30.6715432 C53.5525891,30.7363442 53.5705578,30.8541315 53.6003859,31.0735955 L53.7484484,31.0735955 L53.7484484,29.9035982 L53.6003859,29.9035982 C53.5407297,30.3407361 53.5231203,30.3761798 53.0131672,30.3761798 L52.4140891,30.3761798 L52.4140891,29.0296804 C52.4140891,28.8581906 52.4259484,28.8463761 52.5919797,28.8463761 L53.0426359,28.8463761 C53.4045266,28.8463761 53.6003859,28.887548 53.6949016,28.9881505 C53.7836672,29.0826668 53.8490734,29.2366139 53.9083703,29.5312613 L54.0567922,29.5140765 C54.0269641,29.1825534 53.9974953,28.7518598 53.9913859,28.6508992 L51.3941828,28.6508992 L51.3941828,28.7869454 C51.8685578,28.822389 51.9159953,28.8639189 51.9159953,29.5079902 L51.9159953,31.634249 Z" id="Fill-7" fill="#FEFEFE"></path>
                    <g id="Group-11" transform="translate(54.625000, 28.283288)">
                        <mask id="mask-2" fill="white">
                            <use xlink:href="#path-1"></use>
                        </mask>
                        <g id="Clip-10"></g>
                        <path d="M3.74220781,1.34796719 C3.69477031,0.941260666 3.66494219,0.633366644 3.64733281,0.432877514 C3.43961406,0.379533084 3.03064531,0.279288519 2.51458281,0.279288519 C1.39405156,0.279288519 0.320598438,0.993889063 0.320598438,2.32928988 C0.320598438,3.48711461 1.22802031,4.29623145 2.47900469,4.29623145 C2.92391094,4.29623145 3.40439531,4.16054327 3.77167656,4.05958268 C3.74220781,3.9238945 3.73609844,3.73450387 3.73609844,3.5222002 L3.73609844,3.12086393 C3.73609844,2.70126882 3.75981719,2.68372602 4.09223906,2.63073961 L4.09223906,2.49433539 L2.56777031,2.49433539 L2.56777031,2.63073961 C3.21428594,2.67763974 3.23836406,2.71881162 3.23836406,3.12086393 L3.23836406,3.64643186 C3.23836406,3.92998077 3.19667656,3.97115265 3.06622344,4.02413906 C2.92391094,4.07748349 2.72230156,4.10111257 2.50883281,4.10111257 C1.33475469,4.10111257 0.907817188,3.11477765 0.907817188,2.21687276 C0.907817188,1.10093594 1.49467656,0.474407405 2.41395781,0.474407405 C2.94152031,0.474407405 3.43422344,0.616181861 3.59989531,1.36658404 L3.74220781,1.34796719 Z" id="Fill-9" fill="#FEFEFE" mask="url(#mask-2)"></path>
                    </g>
                    <path d="M60.3332406,30.8014673 L60.6538031,30.8014673 C60.8374437,30.8014673 60.9323187,30.860898 61.0275531,31.014129 C61.193225,31.2912336 61.4422719,31.7294456 61.6262719,31.9950937 C61.8516,32.3190984 62.0593187,32.5263899 62.7406937,32.5439327 L62.8240688,32.5439327 L62.8359281,32.4322316 C62.6221,32.3788872 62.5153656,32.2847289 62.3913812,32.1365101 C62.2311,31.9592921 62.1063969,31.7999748 61.8929281,31.4867105 C61.7153969,31.2264327 61.4717406,30.8186521 61.3650063,30.6421501 C61.8454906,30.4470312 62.1480844,30.0986813 62.1480844,29.608557 C62.1480844,29.2655774 61.9939125,29.0002873 61.756725,28.8520685 C61.5371469,28.7045658 61.1993344,28.6508634 60.8198344,28.6508634 L59.3133344,28.6508634 L59.3133344,28.7869096 C59.7877094,28.8227112 59.8355063,28.8638831 59.8355063,29.5079544 L59.8355063,31.6342132 C59.8355063,32.2782846 59.7877094,32.3190984 59.289975,32.3549001 L59.289975,32.4909463 L60.8672719,32.4909463 L60.8672719,32.3549001 C60.3810375,32.3190984 60.3332406,32.2782846 60.3332406,31.6342132 L60.3332406,30.8014673 Z M60.3332406,29.0113858 C60.3332406,28.8928824 60.3512094,28.8638831 60.3864281,28.8520685 C60.434225,28.8345257 60.5172406,28.8227112 60.71885,28.8227112 C61.1637562,28.8227112 61.6140531,29.0708165 61.6140531,29.6905427 C61.6140531,29.9801779 61.5249281,30.2698131 61.2701312,30.4706603 C61.1102094,30.6006202 60.9208187,30.6299775 60.6775219,30.6299775 L60.3332406,30.6299775 L60.3332406,29.0113858 Z" id="Fill-12" fill="#FEFEFE"></path>
                    <path d="M64.7601656,29.3561197 L64.772025,29.3561197 L65.2934781,30.8132461 L64.2441031,30.8132461 L64.7601656,29.3561197 Z M65.3768531,32.4909105 L66.8118375,32.4909105 L66.8118375,32.3548643 C66.4441969,32.3258649 66.3672906,32.2846931 66.1771813,31.7909886 C65.9461031,31.1909533 65.6851969,30.439477 65.4066813,29.6880008 L64.9854938,28.5623976 L64.8489313,28.616458 L63.6274156,31.755187 C63.4200562,32.2789648 63.3726188,32.3140504 62.9870094,32.3548643 L62.9870094,32.4909105 L64.2563219,32.4909105 L64.2563219,32.3548643 L64.0784313,32.3376795 C63.8110563,32.3140504 63.7578688,32.2377929 63.8707125,31.8966034 C63.9537281,31.6492141 64.1079,31.1909533 64.1671969,31.0377223 L65.3707438,31.0377223 C65.536775,31.4616136 65.7089156,31.9202325 65.7506031,32.0609329 C65.8095406,32.2428052 65.7858219,32.3083221 65.5666031,32.3312352 L65.3768531,32.3548643 L65.3768531,32.4909105 Z" id="Fill-14" fill="#FEFEFE"></path>
                    <path d="M68.5525422,28.8463403 L68.9496516,28.8463403 C69.3176516,28.8463403 69.5012922,28.8875122 69.6019172,29.0002873 C69.6910422,29.0940876 69.7564484,29.2594911 69.8153859,29.54304 L69.9638078,29.5251392 C69.9339797,29.1825176 69.9045109,28.751824 69.8984016,28.5033607 L69.8153859,28.5033607 C69.7205109,28.6150618 69.6910422,28.6508634 69.5365109,28.6508634 L67.1056984,28.6508634 C66.9454172,28.6508634 66.8861203,28.6390488 66.7969953,28.5033607 L66.7143391,28.5033607 C66.7024797,28.8048104 66.6669016,29.1825176 66.6431828,29.54304 L66.7916047,29.54304 C66.8624016,29.2834782 66.9335578,29.1177166 66.9989641,29.0350149 C67.0877297,28.9233138 67.2476516,28.8463403 67.7755734,28.8463403 L68.0540891,28.8463403 L68.0540891,31.6342132 C68.0540891,32.2782846 68.0070109,32.3190984 67.4496203,32.3549001 L67.4496203,32.4909463 L69.1807297,32.4909463 L69.1807297,32.3549001 C68.5999797,32.3190984 68.5525422,32.2782846 68.5525422,31.6342132 L68.5525422,28.8463403 Z" id="Fill-16" fill="#FEFEFE"></path>
                    <path d="M71.0779781,31.634249 C71.0779781,32.2783204 71.0301813,32.3191342 70.4968688,32.3549359 L70.4968688,32.4909821 L73.3014313,32.4909821 C73.3485094,32.3309488 73.4793219,31.7294814 73.50915,31.5637198 L73.3607281,31.546177 C73.2716031,31.8175534 73.1770875,32.0176845 73.0764625,32.1250894 C72.94565,32.2665058 72.6671344,32.2955052 72.3286031,32.2955052 C72.0500875,32.2955052 71.8366187,32.2955052 71.7241344,32.224976 C71.6112906,32.1544467 71.5760719,31.9768707 71.5760719,31.6406933 L71.5760719,30.5945697 L72.17515,30.5945697 C72.4299469,30.5945697 72.5604,30.6063842 72.6376656,30.6715432 C72.7145719,30.7363442 72.7325406,30.8541315 72.7620094,31.0735955 L72.9100719,31.0735955 L72.9100719,29.9035982 L72.7620094,29.9035982 C72.7027125,30.3407361 72.6847438,30.3761798 72.17515,30.3761798 L71.5760719,30.3761798 L71.5760719,29.0296804 C71.5760719,28.8581906 71.5875719,28.8463761 71.7539625,28.8463761 L72.2046188,28.8463761 C72.56615,28.8463761 72.7620094,28.887548 72.856525,28.9881505 C72.94565,29.0826668 73.0110562,29.2366139 73.0699938,29.5312613 L73.2184156,29.5140765 C73.1885875,29.1825534 73.1591188,28.7518598 73.1530094,28.6508992 L70.5558063,28.6508992 L70.5558063,28.7869454 C71.0301813,28.822389 71.0779781,28.8639189 71.0779781,29.5079902 L71.0779781,31.634249 Z" id="Fill-18" fill="#FEFEFE"></path>
                    <path d="M75.0978031,29.0232719 C75.0978031,28.9047685 75.1154125,28.870041 75.1509906,28.8582264 C75.1984281,28.8399676 75.2818031,28.8224248 75.5779281,28.8224248 C76.0523031,28.8224248 76.390475,28.892954 76.6215531,29.0175437 C77.2148812,29.3247217 77.3453344,29.9562624 77.3453344,30.5527176 C77.3453344,31.439882 76.86485,32.295541 75.6196156,32.295541 C75.4180062,32.295541 75.2756938,32.2608134 75.1984281,32.1952964 C75.1154125,32.1251252 75.0978031,32.0069798 75.0978031,31.7345294 L75.0978031,29.0232719 Z M74.0897562,28.650935 L74.0897562,28.7869812 C74.5522719,28.8224248 74.5997094,28.8639547 74.5997094,29.508026 L74.5997094,31.6342849 C74.5997094,32.2783562 74.5522719,32.31917 74.0419594,32.3549717 L74.0419594,32.4910179 L75.4057875,32.4910179 C76.7994437,32.4910179 77.9203344,31.8584031 77.9203344,30.4002026 C77.9203344,29.8560179 77.7011156,29.4253243 77.4042719,29.1478616 C77.0247719,28.7927094 76.4555219,28.650935 75.7497094,28.650935 L74.0897562,28.650935 Z" id="Fill-20" fill="#FEFEFE"></path>
                    <path d="M81.2541844,30.8014673 L81.5743875,30.8014673 C81.7580281,30.8014673 81.8529031,30.860898 81.9477781,31.014129 C82.1141688,31.2912336 82.3632156,31.7294456 82.5468563,31.9950937 C82.7725437,32.3190984 82.9795437,32.5263899 83.6616375,32.5439327 L83.7446531,32.5439327 L83.7565125,32.4322316 C83.5430437,32.3788872 83.4363094,32.2847289 83.3119656,32.1365101 C83.151325,31.9592921 83.0273406,31.7999748 82.8138719,31.4867105 C82.6356219,31.2264327 82.3926844,30.8186521 82.28595,30.6421501 C82.766075,30.4470312 83.0686688,30.0986813 83.0686688,29.608557 C83.0686688,29.2655774 82.9141375,29.0002873 82.67695,28.8520685 C82.4580906,28.7045658 82.1195594,28.6508634 81.7407781,28.6508634 L80.2342781,28.6508634 L80.2342781,28.7869096 C80.7086531,28.8227112 80.7557312,28.8638831 80.7557312,29.5079544 L80.7557312,31.6342132 C80.7557312,32.2782846 80.7086531,32.3190984 80.2105594,32.3549001 L80.2105594,32.4909463 L81.7874969,32.4909463 L81.7874969,32.3549001 C81.3016219,32.3190984 81.2541844,32.2782846 81.2541844,31.6342132 L81.2541844,30.8014673 Z M81.2541844,29.0113858 C81.2541844,28.8928824 81.2717938,28.8638831 81.3073719,28.8520685 C81.3548094,28.8345257 81.4381844,28.8227112 81.6394344,28.8227112 C82.0843406,28.8227112 82.5346375,29.0708165 82.5346375,29.6905427 C82.5346375,29.9801779 82.4458719,30.2698131 82.191075,30.4706603 C82.0311531,30.6006202 81.8410438,30.6299775 81.5981063,30.6299775 L81.2541844,30.6299775 L81.2541844,29.0113858 Z" id="Fill-22" fill="#FEFEFE"></path>
                    <path d="M85.1764391,29.507847 C85.1764391,28.8637757 85.2242359,28.8226038 85.7101109,28.7868022 L85.7101109,28.650756 L84.1446734,28.650756 L84.1446734,28.7868022 C84.6309078,28.8226038 84.6787047,28.8637757 84.6787047,29.507847 L84.6787047,31.6341058 C84.6787047,32.2781772 84.6309078,32.319349 84.1446734,32.3547927 L84.1446734,32.4908389 L85.7101109,32.4908389 L85.7101109,32.3547927 C85.2242359,32.319349 85.1764391,32.2781772 85.1764391,31.6341058 L85.1764391,29.507847 Z" id="Fill-24" fill="#FEFEFE"></path>
                    <g id="Group-28" transform="translate(86.250000, 28.283288)">
                        <mask id="mask-4" fill="white">
                            <use xlink:href="#path-3"></use>
                        </mask>
                        <g id="Clip-27"></g>
                        <path d="M0.147739063,3.19153635 C0.207035937,3.51052887 0.272442188,3.93012398 0.319879688,4.08371298 C0.391035937,4.11307031 0.497770312,4.16068648 0.645832812,4.20758662 C0.794254688,4.25520279 0.995504688,4.29637466 1.20933281,4.29637466 C1.96222344,4.29637466 2.52572344,3.7944358 2.52572344,3.1091926 C2.52572344,2.37633322 1.90292656,2.13395618 1.51156719,1.96282439 C1.06091094,1.76233526 0.746817188,1.56721637 0.746817188,1.13007846 C0.746817188,0.781012568 0.966035937,0.474192595 1.38686406,0.474192595 C1.92664531,0.474192595 2.09267656,0.888059443 2.19330156,1.23605129 L2.34172344,1.21886651 C2.29464531,0.864430367 2.25870781,0.628139606 2.23534844,0.421206182 C2.16994219,0.409391644 2.08692656,0.379676291 2.01002031,0.355689198 C1.88531719,0.31487534 1.68334844,0.279073709 1.51767656,0.279073709 C0.740707813,0.279073709 0.296160938,0.781012568 0.296160938,1.36636923 C0.296160938,2.07559952 1.09648906,2.35306216 1.29234844,2.44722045 C1.67148906,2.63088281 2.05709844,2.83674219 2.05709844,3.33903906 C2.05709844,3.79980605 1.77247344,4.10125577 1.32217656,4.10125577 C0.693629688,4.10125577 0.391035937,3.44608594 0.296160938,3.16790727 L0.147739063,3.19153635 Z" id="Fill-26" fill="#FEFEFE" mask="url(#mask-4)"></path>
                    </g>
                    <path d="M90.4646062,29.507847 C90.4646062,28.8637757 90.5120437,28.8226038 90.9921687,28.7868022 L90.9921687,28.650756 L89.4209812,28.650756 L89.4209812,28.7868022 C89.9187156,28.8226038 89.9661531,28.8637757 89.9661531,29.507847 L89.9661531,31.6341058 C89.9661531,32.2781772 89.9187156,32.319349 89.45045,32.3547927 L89.45045,32.4908389 L91.0219969,32.4908389 L91.0219969,32.3547927 C90.5120437,32.319349 90.4646062,32.2781772 90.4646062,31.6341058 L90.4646062,30.518169 C90.873575,30.9434924 91.9233094,32.1782906 92.2079344,32.4908389 L93.0851687,32.4908389 L93.0851687,32.3547927 C92.8124031,32.3257933 92.7056687,32.2545481 92.3797156,31.9176548 C92.1188094,31.6462784 91.4726531,30.9370481 90.9447312,30.3169639 C91.4133562,29.8325678 91.8697625,29.4011582 92.0832312,29.2128416 C92.4745906,28.8519611 92.6230125,28.8226038 92.9902937,28.7868022 L92.9902937,28.650756 L91.5614187,28.650756 L91.5614187,28.7868022 L91.8047156,28.8193817 C91.9646375,28.8372825 91.9826062,28.9074537 91.8816219,29.0313273 C91.5793875,29.4036643 90.7549812,30.2711378 90.4646062,30.5077865 L90.4646062,29.507847 Z" id="Fill-29" fill="#FEFEFE"></path>
                    <path d="M95.18665,28.6508992 L95.18665,28.7869454 C95.7440406,28.8284753 95.7853688,28.8929182 95.7440406,29.6848503 L95.6786344,30.9257348 C95.6491656,31.5103754 95.6132281,31.8651696 95.5780094,32.0477579 C95.5363219,32.2665058 95.4119781,32.3259365 95.0795563,32.3549359 L95.0795563,32.4909821 L96.4732125,32.4909821 L96.4732125,32.3549359 C96.0879625,32.3259365 95.9452906,32.2665058 95.9158219,32.0477579 C95.8921031,31.8651696 95.8921031,31.5397327 95.9158219,30.9848075 L95.9751188,29.3365004 L95.9873375,29.3365004 L97.3569156,32.4258231 L97.5049781,32.4258231 L98.9575719,29.2537986 L98.98165,29.2537986 L99.0053688,31.634249 C99.0114781,32.2955052 98.9935094,32.313764 98.4954156,32.3549359 L98.4954156,32.4909821 L100.060853,32.4909821 L100.060853,32.3549359 C99.5386813,32.313764 99.5214313,32.2955052 99.5034625,31.634249 L99.456025,29.5079902 C99.4380563,28.8521043 99.4736344,28.8284753 99.9893375,28.7869454 L99.9893375,28.6508992 L99.0114781,28.6508992 L97.5998531,31.6936798 L96.1652281,28.6508992 L95.18665,28.6508992 Z" id="Fill-31" fill="#FEFEFE"></path>
                    <path d="M102.252358,29.3561197 L102.264217,29.3561197 L102.78603,30.8132461 L101.736295,30.8132461 L102.252358,29.3561197 Z M102.869405,32.4909105 L104.30403,32.4909105 L104.30403,32.3548643 C103.936748,32.3258649 103.859483,32.2846931 103.669373,31.7909886 C103.438295,31.1909533 103.177389,30.439477 102.898873,29.6880008 L102.477686,28.5623976 L102.341123,28.616458 L101.119967,31.755187 C100.912248,32.2789648 100.86517,32.3140504 100.479202,32.3548643 L100.479202,32.4909105 L101.748514,32.4909105 L101.748514,32.3548643 L101.570623,32.3376795 C101.303608,32.3140504 101.25042,32.2377929 101.362905,31.8966034 C101.44592,31.6492141 101.600092,31.1909533 101.659748,31.0377223 L102.862936,31.0377223 C103.028967,31.4616136 103.201108,31.9202325 103.242795,32.0609329 C103.302092,32.2428052 103.278014,32.3083221 103.058795,32.3312352 L102.869405,32.3548643 L102.869405,32.4909105 Z" id="Fill-33" fill="#FEFEFE"></path>
                    <path d="M108.262437,30.2168625 C108.262437,29.5967783 108.286156,29.2770697 108.309875,29.0941234 C108.339703,28.887548 108.493875,28.7987599 108.819828,28.7869454 L108.819828,28.6508992 L107.396703,28.6508992 L107.396703,28.7869454 C107.788422,28.8048462 107.948344,28.887548 107.977812,29.0941234 C108.001531,29.2770697 108.02525,29.5967783 108.02525,30.2168625 L108.02525,31.6285208 L108.01375,31.6285208 L105.516813,28.6508992 L104.651078,28.6508992 L104.651078,28.7869454 C104.900484,28.8048462 105.060406,28.8463761 105.172891,28.9881505 C105.279984,29.1238387 105.286094,29.217997 105.286094,29.6429624 L105.286094,30.9257348 C105.286094,31.546177 105.261656,31.8651696 105.238297,32.0477579 C105.208828,32.2543333 105.054656,32.3427633 104.728344,32.3549359 L104.728344,32.4909821 L106.151469,32.4909821 L106.151469,32.3549359 C105.760109,32.3377511 105.600187,32.2543333 105.570359,32.0477579 C105.546641,31.8651696 105.522922,31.546177 105.522922,30.9257348 L105.522922,29.4188442 L105.534781,29.4188442 L108.108266,32.5321539 L108.262437,32.5321539 L108.262437,30.2168625 Z" id="Fill-35" fill="#FEFEFE"></path>
                    <path d="M110.774541,29.3561197 L110.7864,29.3561197 L111.308212,30.8132461 L110.258478,30.8132461 L110.774541,29.3561197 Z M111.391228,32.4909105 L112.826212,32.4909105 L112.826212,32.3548643 C112.458931,32.3258649 112.381666,32.2846931 112.191556,31.7909886 C111.960478,31.1909533 111.699572,30.439477 111.421056,29.6880008 L110.999869,28.5623976 L110.863666,28.616458 L109.64215,31.755187 C109.434431,32.2789648 109.386994,32.3140504 109.001384,32.3548643 L109.001384,32.4909105 L110.270697,32.4909105 L110.270697,32.3548643 L110.092806,32.3376795 C109.825791,32.3140504 109.772603,32.2377929 109.885087,31.8966034 C109.968103,31.6492141 110.122634,31.1909533 110.181931,31.0377223 L111.385119,31.0377223 C111.551509,31.4616136 111.72365,31.9202325 111.764978,32.0609329 C111.824275,32.2428052 111.800197,32.3083221 111.580978,32.3312352 L111.391228,32.3548643 L111.391228,32.4909105 Z" id="Fill-37" fill="#FEFEFE"></path>
                    <g id="Group-41" transform="translate(112.843750, 28.283288)">
                        <mask id="mask-6" fill="white">
                            <use xlink:href="#path-5"></use>
                        </mask>
                        <g id="Clip-40"></g>
                        <path d="M3.69796875,1.34796719 C3.65053125,0.941260666 3.62070313,0.633366644 3.60273437,0.432877514 C3.395375,0.379533084 2.98640625,0.279288519 2.47034375,0.279288519 C1.3498125,0.279288519 0.276359375,0.993889063 0.276359375,2.32928988 C0.276359375,3.48711461 1.18378125,4.29623145 2.43476563,4.29623145 C2.87967188,4.29623145 3.36015625,4.16054327 3.7274375,4.05958268 C3.69796875,3.9238945 3.69185937,3.73450387 3.69185937,3.5222002 L3.69185937,3.12086393 C3.69185937,2.70126882 3.71557812,2.68372602 4.048,2.63073961 L4.048,2.49433539 L2.52353125,2.49433539 L2.52353125,2.63073961 C3.17004687,2.67763974 3.194125,2.71881162 3.194125,3.12086393 L3.194125,3.64643186 C3.194125,3.92998077 3.15207812,3.97115265 3.02198438,4.02413906 C2.87967188,4.07748349 2.6780625,4.10111257 2.46423437,4.10111257 C1.29051562,4.10111257 0.86321875,3.11477765 0.86321875,2.21687276 C0.86321875,1.10093594 1.4504375,0.474407405 2.36971875,0.474407405 C2.89728125,0.474407405 3.389625,0.616181861 3.55565625,1.36658404 L3.69796875,1.34796719 Z" id="Fill-39" fill="#FEFEFE" mask="url(#mask-6)"></path>
                    </g>
                    <path d="M118.009766,31.634249 C118.009766,32.2783204 117.962328,32.3191342 117.428656,32.3549359 L117.428656,32.4909821 L120.233219,32.4909821 C120.280656,32.3309488 120.411469,31.7294814 120.440938,31.5637198 L120.292875,31.546177 C120.20375,31.8175534 120.108875,32.0176845 120.00825,32.1250894 C119.877438,32.2665058 119.598922,32.2955052 119.26075,32.2955052 C118.982234,32.2955052 118.768766,32.2955052 118.656281,32.224976 C118.543438,32.1544467 118.507859,31.9768707 118.507859,31.6406933 L118.507859,30.5945697 L119.106938,30.5945697 C119.361734,30.5945697 119.492188,30.6063842 119.569453,30.6715432 C119.646359,30.7363442 119.664328,30.8541315 119.694156,31.0735955 L119.842219,31.0735955 L119.842219,29.9035982 L119.694156,29.9035982 C119.6345,30.3407361 119.616891,30.3761798 119.106938,30.3761798 L118.507859,30.3761798 L118.507859,29.0296804 C118.507859,28.8581906 118.519719,28.8463761 118.68575,28.8463761 L119.136406,28.8463761 C119.498297,28.8463761 119.694156,28.887548 119.788672,28.9881505 C119.877438,29.0826668 119.942844,29.2366139 120.002141,29.5312613 L120.150563,29.5140765 C120.120734,29.1825534 120.091266,28.7518598 120.085156,28.6508992 L117.487953,28.6508992 L117.487953,28.7869454 C117.962328,28.822389 118.009766,28.8639189 118.009766,29.5079902 L118.009766,31.634249 Z" id="Fill-42" fill="#FEFEFE"></path>
                    <path d="M121.021652,28.6508992 L121.021652,28.7869454 C121.579042,28.8284753 121.62073,28.8929182 121.579042,29.6848503 L121.513636,30.9257348 C121.484167,31.5103754 121.44823,31.8651696 121.413011,32.0477579 C121.371683,32.2665058 121.24698,32.3259365 120.914917,32.3549359 L120.914917,32.4909821 L122.308573,32.4909821 L122.308573,32.3549359 C121.922964,32.3259365 121.780652,32.2665058 121.750823,32.0477579 C121.727464,31.8651696 121.727464,31.5397327 121.750823,30.9848075 L121.81012,29.3365004 L121.822339,29.3365004 L123.191917,32.4258231 L123.33998,32.4258231 L124.792933,29.2537986 L124.816652,29.2537986 L124.84037,31.634249 C124.84648,32.2955052 124.828511,32.313764 124.330417,32.3549359 L124.330417,32.4909821 L125.895855,32.4909821 L125.895855,32.3549359 C125.374042,32.313764 125.356433,32.2955052 125.338823,31.634249 L125.291027,29.5079902 C125.273417,28.8521043 125.308995,28.8284753 125.824698,28.7869454 L125.824698,28.6508992 L124.84648,28.6508992 L123.435214,31.6936798 L122.00023,28.6508992 L121.021652,28.6508992 Z" id="Fill-44" fill="#FEFEFE"></path>
                    <path d="M127.061883,31.634249 C127.061883,32.2783204 127.014086,32.3191342 126.480773,32.3549359 L126.480773,32.4909821 L129.285336,32.4909821 C129.332773,32.3309488 129.463586,31.7294814 129.493055,31.5637198 L129.344992,31.546177 C129.255508,31.8175534 129.160992,32.0176845 129.060367,32.1250894 C128.929555,32.2665058 128.651039,32.2955052 128.312867,32.2955052 C128.033992,32.2955052 127.820523,32.2955052 127.708039,32.224976 C127.595195,32.1544467 127.559977,31.9768707 127.559977,31.6406933 L127.559977,30.5945697 L128.158695,30.5945697 C128.413852,30.5945697 128.544305,30.6063842 128.621211,30.6715432 C128.698477,30.7363442 128.716445,30.8541315 128.745914,31.0735955 L128.893977,31.0735955 L128.893977,29.9035982 L128.745914,29.9035982 C128.686617,30.3407361 128.669008,30.3761798 128.158695,30.3761798 L127.559977,30.3761798 L127.559977,29.0296804 C127.559977,28.8581906 127.571836,28.8463761 127.737867,28.8463761 L128.188523,28.8463761 C128.550055,28.8463761 128.745914,28.887548 128.84043,28.9881505 C128.929555,29.0826668 128.994961,29.2366139 129.054258,29.5312613 L129.20232,29.5140765 C129.172852,29.1825534 129.143023,28.7518598 129.136914,28.6508992 L126.54007,28.6508992 L126.54007,28.7869454 C127.014086,28.822389 127.061883,28.8639189 127.061883,29.5079902 L127.061883,31.634249 Z" id="Fill-46" fill="#FEFEFE"></path>
                    <path d="M133.560461,30.2168625 C133.560461,29.5967783 133.58382,29.2770697 133.607898,29.0941234 C133.637367,28.887548 133.791898,28.7987599 134.117852,28.7869454 L134.117852,28.6508992 L132.694727,28.6508992 L132.694727,28.7869454 C133.086086,28.8048462 133.246008,28.887548 133.275836,29.0941234 C133.299195,29.2770697 133.323273,29.5967783 133.323273,30.2168625 L133.323273,31.6285208 L133.311414,31.6285208 L130.814477,28.6508992 L129.949102,28.6508992 L129.949102,28.7869454 C130.198508,28.8048462 130.35843,28.8463761 130.470914,28.9881505 C130.577648,29.1238387 130.583758,29.217997 130.583758,29.6429624 L130.583758,30.9257348 C130.583758,31.546177 130.55968,31.8651696 130.53632,32.0477579 C130.506492,32.2543333 130.35232,32.3427633 130.026008,32.3549359 L130.026008,32.4909821 L131.449492,32.4909821 L131.449492,32.3549359 C131.057773,32.3377511 130.897852,32.2543333 130.868383,32.0477579 C130.844305,31.8651696 130.820945,31.546177 130.820945,30.9257348 L130.820945,29.4188442 L130.832445,29.4188442 L133.40593,32.5321539 L133.560461,32.5321539 L133.560461,30.2168625 Z" id="Fill-48" fill="#FEFEFE"></path>
                    <path d="M136.516859,28.8463403 L136.914328,28.8463403 C137.281969,28.8463403 137.465969,28.8875122 137.566594,29.0002873 C137.655719,29.0940876 137.721125,29.2594911 137.780422,29.54304 L137.928484,29.5251392 C137.898656,29.1825176 137.869187,28.751824 137.863078,28.5033607 L137.780422,28.5033607 C137.685187,28.6150618 137.655719,28.6508634 137.501187,28.6508634 L135.070375,28.6508634 C134.910094,28.6508634 134.850797,28.6390488 134.762031,28.5033607 L134.679016,28.5033607 C134.667156,28.8048104 134.631578,29.1825176 134.607859,29.54304 L134.756281,29.54304 C134.827078,29.2834782 134.898234,29.1177166 134.963641,29.0350149 C135.052406,28.9233138 135.212687,28.8463403 135.74025,28.8463403 L136.018766,28.8463403 L136.018766,31.6342132 C136.018766,32.2782846 135.971328,32.3190984 135.414297,32.3549001 L135.414297,32.4909463 L137.145766,32.4909463 L137.145766,32.3549001 C136.564656,32.3190984 136.516859,32.2782846 136.516859,31.6342132 L136.516859,28.8463403 Z" id="Fill-50" fill="#FEFEFE"></path>
                    <path d="M41.5039672,2.19757568 L33.1837172,2.19757568 L33.1837172,2.97554511 C35.1193109,3.17818234 35.6289047,3.41518913 36.5456703,6.22346902 L42.4210922,24.3917224 L43.3719984,24.3917224 L48.9074516,7.91509606 L48.9753734,7.84707296 L55.0887016,24.3917224 L56.0054672,24.3917224 C58.8578266,15.0879527 61.3371547,7.30646834 61.6429828,6.4601178 C62.7638734,3.3815356 63.0014203,3.24620543 65.2428422,2.97554511 L65.2428422,2.19757568 L58.0427641,2.19757568 L58.0427641,2.97554511 L59.0281703,3.11123329 C60.5562328,3.28021698 60.7262172,3.68584946 60.2504047,5.64849484 C59.6732484,8.08443777 57.7031547,15.2232829 56.3109359,19.485825 L56.2433734,19.485825 L50.0962641,2.53590109 L49.2812016,2.53590109 L43.8474516,19.5201946 L43.7791703,19.5201946 L39.1946234,5.10717418 C38.7191703,3.61818438 38.9229359,3.31387052 40.4513578,3.11123329 L41.5039672,2.97554511 L41.5039672,2.19757568 Z" id="Fill-52" fill="#FEFEFE"></path>
                    <path d="M68.3265313,24.5942164 C71.7567656,24.5942164 75.695875,21.8883292 75.695875,16.6104529 C75.695875,12.3812063 72.60525,9.09927079 68.2923906,9.09927079 C65.2024844,9.09927079 60.7872031,11.5692253 60.7872031,17.2527341 C60.7872031,20.7716764 63.5382187,24.5942164 68.3265313,24.5942164 M68.7002813,23.5792402 C65.7455,23.5792402 63.8778281,20.2980208 63.8778281,16.0011091 C63.8778281,12.4488713 65.6092969,10.114247 67.8848594,10.114247 C70.9754844,10.114247 72.60525,13.5988197 72.60525,17.3547688 C72.60525,21.9216247 70.8055,23.5792402 68.7002813,23.5792402" id="Fill-54" fill="#FEFEFE"></path>
                    <path d="M77.9994688,21.1441207 C77.9994688,23.038743 77.8294844,23.2077267 75.5205,23.4107219 L75.5205,24.1886914 L83.12775,24.1886914 L83.12775,23.4107219 C80.8176875,23.2077267 80.6484219,23.038743 80.6484219,21.1441207 L80.6484219,0.167229416 C79.4254687,0.50591284 77.2178281,1.04687548 75.5880625,1.35190537 L75.5880625,2.02819817 C77.9315469,2.19753988 77.9994688,2.23119341 77.9994688,4.22785034 L77.9994688,21.1441207 Z" id="Fill-56" fill="#FEFEFE"></path>
                    <path d="M92.5334563,10.7910052 C92.9072063,10.588368 93.0426906,9.87734762 92.8727063,9.50501067 L88.6622688,9.50501067 L88.6622688,8.08440197 C88.6277688,5.208457 89.1377219,3.3814998 89.6128156,2.77287208 C90.0544875,2.16352833 90.5978625,1.85921447 91.1070969,1.85921447 C92.2276281,1.85921447 93.2464562,2.53586529 93.9935969,3.24616963 C94.299425,3.51718798 94.5711125,3.55048349 94.9790031,3.2125161 C95.2161906,2.97550931 95.5216594,2.63789993 95.6240813,2.36652357 C95.759925,2.0618517 95.8278469,1.79119137 95.4882375,1.41921243 C94.8769406,0.742919633 93.8581125,0.235968546 92.9413469,0.167229416 C91.4470656,0.336571128 90.2241125,0.878249796 88.8998156,1.9608911 C87.065925,3.51718798 86.5901125,5.27612208 86.352925,5.95277289 C86.1484406,6.56175863 86.0125969,7.61038838 86.0125969,8.99734355 L86.0125969,9.50501067 L84.4169719,9.50501067 L83.4660656,10.4526798 L83.60155,10.7910052 L86.0125969,10.7910052 L86.0125969,21.1441207 C86.0125969,23.0043734 85.8433313,23.1740732 83.7715344,23.4107219 L83.7715344,24.1886914 L91.6846125,24.1886914 L91.6846125,23.4107219 C88.8318937,23.1740732 88.6622688,23.0043734 88.6622688,21.1441207 L88.6622688,10.7910052 L92.5334563,10.7910052 Z" id="Fill-58" fill="#FEFEFE"></path>
                    <path d="M99.2264563,15.5441371 L101.460331,16.1158891 C101.822941,16.1158891 102.335769,16.1158891 102.818769,16.0553844 C105.717128,15.694862 108.705331,13.7096615 108.705331,10.0113531 C108.705331,8.11637283 107.950284,6.73299783 106.772972,5.89058546 C105.505816,4.95831101 103.784769,4.62786196 101.762566,4.62786196 L94.1247688,4.62786196 L94.1247688,5.31919144 C96.4488469,5.49927364 96.6903469,5.71014524 96.6903469,8.98814253 L96.6903469,19.8149136 C96.6903469,23.0929109 96.4488469,23.3030664 93.9738313,23.4838647 L93.9738313,24.1751942 L102.396144,24.1751942 L102.396144,23.4838647 C99.4679563,23.3030664 99.2264563,23.0929109 99.2264563,19.8149136 L99.2264563,15.5441371 Z M99.2264563,6.46197948 C99.2264563,5.86087011 99.3170188,5.71014524 99.4981437,5.64999851 C99.7400031,5.5597784 100.162269,5.49927364 101.037706,5.49927364 C104.147019,5.49927364 105.867347,6.82321793 105.867347,10.1008572 C105.867347,14.0107533 103.392331,15.0031745 101.490519,15.0031745 C100.463784,15.0031745 99.6188938,14.8223762 99.2264563,14.641936 L99.2264563,6.46197948 Z" id="Fill-60" fill="#FEFEFE"></path>
                    <path d="M112.444017,8.21704701 L112.504392,8.21704701 L115.161252,15.6347868 L109.817705,15.6347868 L112.444017,8.21704701 Z M115.583517,24.1752658 L122.888892,24.1752658 L122.888892,23.4839363 C121.016908,23.3342855 120.625189,23.1244879 119.65847,20.6090654 C118.481517,17.5562603 117.153267,13.7347943 115.734455,9.9054519 L113.591142,4.17683302 L112.89683,4.44785136 L106.678205,20.4300572 C105.621642,23.0951306 105.380142,23.2744967 103.417955,23.4839363 L103.417955,24.1752658 L109.87808,24.1752658 L109.87808,23.4839363 L108.972814,23.3940742 C107.614377,23.2744967 107.34233,22.885333 107.915892,21.1485959 C108.338158,19.8912427 109.123392,17.5562603 109.425627,16.7768588 L115.55297,16.7768588 C116.39822,18.933191 117.274017,21.2685314 117.48533,21.9870701 C117.787205,22.9150484 117.666455,23.2444234 116.549517,23.3643588 L115.583517,23.4839363 L115.583517,24.1752658 Z" id="Fill-62" fill="#FEFEFE"></path>
                    <path d="M137.245456,9.49949721 C137.064331,7.93604001 136.943222,6.61245374 136.701722,4.95806039 C135.856472,4.77797819 133.833909,4.17686882 131.268331,4.17686882 C124.656909,4.17686882 119.857097,8.47700265 119.857097,14.6724748 C119.857097,19.4541406 123.057331,24.6264021 130.694409,24.6264021 C132.807534,24.6264021 135.524409,23.9952194 136.3693,23.7843478 C136.852659,22.6419177 137.517144,20.2360482 137.909581,18.9428933 L137.154534,18.8526732 C135.675706,22.0096609 134.105956,23.6339809 130.724597,23.6339809 C125.834222,23.6339809 122.846019,19.7849476 122.846019,13.9804293 C122.846019,9.25855224 125.260659,5.168932 130.694409,5.168932 C133.652784,5.168932 135.584784,6.10120645 136.49005,9.56000197 L137.245456,9.49949721 Z" id="Fill-64" fill="#FEFEFE"></path>
                    <path d="M14.2279438,30.0630587 C8.30256875,27.6732999 3.79780313,22.4827795 4.25924063,15.7996891 C5.82863125,14.3074772 7.3919125,13.3988318 9.06264688,12.6555899 C8.65008438,16.4240696 9.53342813,22.8028461 14.2279438,27.0865111 C16.532975,29.1898569 19.7562094,30.7876837 24.1966469,31.3250662 C20.8235531,31.7980057 17.3311469,31.3139677 14.2279438,30.0630587 M14.2279437,30.8213372 C17.5014906,31.9401382 21.1372875,32.2057863 24.5765062,31.3998916 C21.9340219,32.2448101 18.0879906,32.7385145 14.2279437,32.5251368 C8.95770938,32.2355016 3.6616,30.6290825 1.36950625,26.8065424 C-0.51361875,23.6345179 0.13685,20.277041 3.32306875,16.7344697 C3.11463125,23.5088542 8.0201,28.7000906 14.2279437,30.8213372" id="Fill-66" fill="#FEFEFE"></path>
                    <path d="M25.5419672,17.2045093 C26.4813734,14.430957 26.6747172,11.1432933 25.5419672,7.36156705 C25.3087328,6.58216556 25.0205141,5.78235713 24.6690453,4.96142575 C24.9773891,5.35381162 25.2674047,5.75980211 25.5419672,6.17581705 C29.6438734,12.3945603 29.9655141,21.0342097 25.5419672,26.4581567 C24.3977172,27.8615806 22.9375766,29.0494787 21.1414203,29.9248286 C19.0595609,29.3172749 17.4876547,28.4225922 16.0066703,27.3539135 C19.1946859,25.9544278 23.7400609,22.5253476 25.5419672,17.2045093 M22.4222328,30.2656601 C23.6175141,29.625527 24.6546703,28.8411132 25.5419672,27.9464305 C31.1104828,22.3252165 30.7104984,12.2953897 25.5419672,5.7529998 C25.2271547,5.35416963 24.8943734,4.96751202 24.5443422,4.59624912 C24.8706547,4.89089654 25.2048734,5.2174074 25.5419672,5.56969545 C28.9898109,9.17062344 32.8379984,15.6070406 33.2444516,21.2619081 L33.2444516,23.1500861 C33.1395141,24.4965854 32.7959516,25.7704074 32.1544672,26.9146275 C30.7755453,29.3545086 28.5707797,30.5853687 25.5419672,30.6068497 C24.5845922,30.61401 23.5445609,30.5008768 22.4222328,30.2656601" id="Fill-68" fill="#FEFEFE"></path>
                </g>
                <g id="Group-73" transform="translate(17.000000, 4.000000)">
                    <mask id="mask-8" fill="white">
                        <use xlink:href="#path-7"></use>
                    </mask>
                    <g id="Clip-72"></g>
                </g>
                <path d="M12.7344281,10.9296247 C8.87541919,11.3282604 4.79012356,13.1933671 1.25305562,17.7211954 C3.3231862,12.792328 7.75326565,8.82313905 12.7344281,7.25606481 C16.6262736,6.03131594 20.8554076,6.27269482 24.558086,8.66931581 C25.0670526,10.6834388 25.0752618,12.4129202 24.8875223,14.1516722 C22.3255573,12.3459659 17.7188029,10.4145915 12.7344281,10.9296247 M24.2158006,7.44628372 C20.5895029,5.28726469 16.4963551,5.1176471 12.7344281,6.32076458 C7.39349123,8.02895791 2.71999298,12.5063129 1,18 C2.1457102,12.9011717 6.78280271,4.60124052 12.7344281,1.88907587 C13.9386731,1.34005051 15.1960989,1.01866982 16.4899305,1.00047198 C20.1636985,0.96338959 22.7395834,3.11142125 24.2158006,7.44628372" id="Fill-74" fill="#FEFEFE"></path>
                <g id="Group-78" transform="translate(1.000000, 0.000000)">
                    <mask id="mask-10" fill="white">
                        <use xlink:href="#path-9"></use>
                    </mask>
                    <g id="Clip-77"></g>
                </g>
            </g>
        </g>
    </g>
</svg>