<svg width="778" height="117" viewBox="0 0 778 117" fill="none" xmlns="http://www.w3.org/2000/svg"><path d="M60.4616 94.6114C71.3579 94.6114 80.0285 90.5899 85.7203 84.8623C86.7784 83.7893 88.1628 83.0982 89.656 82.8977C91.1492 82.6972 92.6667 82.9985 93.9701 83.7544L104.091 89.6704C104.693 90.0187 105.211 90.4936 105.61 91.0622C106.01 91.6308 106.281 92.2794 106.406 92.9633C106.53 93.6471 106.504 94.3498 106.33 95.0227C106.156 95.6956 105.838 96.3226 105.398 96.8604C95.0775 109.235 79.7295 116.547 60.2401 116.547C23.6974 116.547 0 91.5094 0 58.2736C0 25.4808 23.6974 0 58.4683 0C91.4675 0 111.843 26.5887 111.843 58.4951C111.843 59.9907 111.754 61.5307 111.621 63.0595C111.476 64.5414 110.784 65.916 109.68 66.9154C108.577 67.9148 107.141 68.4676 105.653 68.4659H25.0262C28.7912 85.7485 42.7439 94.6114 60.4616 94.6114ZM89.9172 48.9675C86.5951 29.9123 72.6425 21.7141 58.2469 21.7141C40.3077 21.7141 28.1268 32.3496 24.8047 48.9675H89.9172Z" fill="#0C3A44"/><path d="M209.118 0H172.816C154.406 0 137.702 13.8116 137.702 42.0615V111.557C137.702 112.881 138.226 114.15 139.157 115.086C140.089 116.021 141.352 116.547 142.67 116.547H158.172C158.824 116.547 159.469 116.418 160.072 116.167C160.674 115.916 161.22 115.548 161.681 115.085C162.141 114.621 162.506 114.071 162.754 113.466C163.002 112.86 163.13 112.212 163.128 111.557V47.7021C163.128 29.4797 172.545 21.3914 191.32 21.3914C210.86 21.3914 219.394 28.581 219.394 46.555V78.8491L232.213 89.125C232.409 89.2823 232.566 89.482 232.675 89.7094C232.783 89.9367 232.838 90.1857 232.836 90.4376V98.3249C232.838 98.5458 232.796 98.7649 232.712 98.9693C232.629 99.1738 232.506 99.3595 232.35 99.5157C232.195 99.672 232.01 99.7956 231.806 99.8794C231.603 99.9632 231.385 100.006 231.165 100.004H219.394V111.557C219.394 112.881 219.917 114.15 220.849 115.086C221.78 116.021 223.044 116.547 224.361 116.547H239.864C240.516 116.547 241.161 116.418 241.763 116.167C242.365 115.916 242.912 115.548 243.372 115.085C243.832 114.621 244.197 114.071 244.446 113.466C244.694 112.86 244.821 112.212 244.819 111.557V42.3099C244.819 12.1916 226.645 0 209.118 0Z" fill="#0C3A44"/><path d="M361.92 99.878V110.263C361.92 111.149 361.745 112.026 361.406 112.844C361.066 113.662 360.569 114.405 359.942 115.031C359.315 115.657 358.571 116.153 357.752 116.491C356.934 116.828 356.056 117.002 355.17 117H277.417C275.63 117 273.916 116.29 272.653 115.027C271.389 113.764 270.679 112.05 270.679 110.263V102.276C270.682 100.866 271.124 99.4928 271.943 98.346L325.424 23.8585H279.803C278.017 23.8585 276.303 23.1487 275.039 21.8854C273.776 20.622 273.066 18.9086 273.066 17.122V6.73651C273.066 4.94988 273.776 3.23643 275.039 1.97309C276.303 0.709747 278.017 1.01531e-05 279.803 1.01531e-05H352.878C353.763 -0.00152741 354.641 0.171583 355.46 0.509436C356.278 0.847288 357.023 1.34325 357.649 1.96895C358.276 2.59464 358.774 3.33779 359.113 4.15586C359.452 4.97394 359.627 5.85088 359.627 6.73651V14.6776C359.627 16.0837 359.185 17.4541 358.364 18.5956L305.07 93.0947H355.17C356.06 93.0932 356.941 93.2678 357.763 93.6086C358.585 93.9494 359.331 94.4495 359.959 95.0802C360.586 95.7108 361.083 96.4595 361.419 97.283C361.756 98.1065 361.926 98.9885 361.92 99.878V99.878Z" fill="#0C3A44"/><path d="M387.779 74.1545V4.98458C387.778 4.33056 387.906 3.68265 388.158 3.07796C388.409 2.47327 388.778 1.92368 389.244 1.46066C389.71 0.997648 390.264 0.6303 390.873 0.379657C391.483 0.129013 392.136 -1.84501e-06 392.796 0H408.488C409.822 0 411.101 0.52516 412.044 1.45995C412.987 2.39474 413.517 3.66259 413.517 4.98458V69.9495C413.517 87.9035 426.153 95.0851 442.358 95.0851C459.277 95.0851 470.472 87.9187 470.472 69.9495V4.98458C470.471 4.33056 470.599 3.68265 470.851 3.07796C471.102 2.47327 471.471 1.92368 471.937 1.46066C472.403 0.997648 472.957 0.6303 473.566 0.379657C474.176 0.129013 474.829 -1.84501e-06 475.489 0H491.181C492.515 0 493.794 0.52516 494.737 1.45995C495.68 2.39474 496.209 3.66259 496.209 4.98458L496.472 74.1545C496.472 102.373 481.051 116.547 462.415 116.547H422.108C404.366 116.5 387.779 104.239 387.779 74.1545Z" fill="#0C3A44"/><path d="M613.571 99.8313V110.205C613.571 111.995 612.86 113.711 611.594 114.977C610.329 116.242 608.612 116.953 606.822 116.953H529.069C528.183 116.953 527.306 116.779 526.488 116.439C525.669 116.1 524.926 115.603 524.3 114.976C523.675 114.349 523.179 113.605 522.841 112.787C522.503 111.968 522.33 111.091 522.331 110.205V102.276C522.334 100.866 522.775 99.4929 523.594 98.346L577.075 23.8585H531.455C529.668 23.8585 527.954 23.1487 526.691 21.8854C525.427 20.6221 524.717 18.9086 524.717 17.122V6.73652C524.717 4.94989 525.427 3.23643 526.691 1.97309C527.954 0.709747 529.668 1.01531e-05 531.455 1.01531e-05H604.529C605.415 -0.00152741 606.292 0.171583 607.111 0.509436C607.93 0.847288 608.674 1.34325 609.301 1.96895C609.928 2.59464 610.425 3.33779 610.765 4.15586C611.104 4.97394 611.279 5.85088 611.279 6.73652V14.7127C611.276 16.1184 610.834 17.4881 610.015 18.6307L556.722 93.0714H606.822C607.71 93.0699 608.589 93.2438 609.409 93.5831C610.23 93.9224 610.975 94.4205 611.602 95.0486C612.229 95.6768 612.726 96.4227 613.064 97.2435C613.402 98.0643 613.574 98.9437 613.571 99.8313V99.8313Z" fill="#0C3A44"/><path d="M639.432 58.2724C639.432 25.2587 665.484 0 697.716 0C730.17 0 756 25.2587 756 58.2724C756 91.0644 730.17 116.545 697.716 116.545C690.062 116.614 682.47 115.155 675.382 112.254C668.294 109.353 661.851 105.067 656.428 99.6448C651.005 94.2229 646.71 87.7732 643.792 80.6708C640.875 73.5683 639.393 65.9547 639.432 58.2724V58.2724ZM732.157 58.2724C732.157 38.1097 717.144 23.2646 697.716 23.2646C678.288 23.2646 663.276 38.1097 663.276 58.2724C663.276 78.4351 678.288 93.2801 697.716 93.2801C717.144 93.2801 732.157 78.4351 732.157 58.2724Z" fill="#0C3A44"/></svg>