<?xml version="1.0" encoding="utf-8"?><!--Generator: Adobe Illustrator 22.1.0, SVG Export Plug-In . SVG Version: 6.00 Build 0)--><svg version="1.1" id="Ebene_1" xmlns="http://www.w3.org/2000/svg" xmlns:xlink="http://www.w3.org/1999/xlink" x="0px" y="0px" viewBox="0 0 176 44" style="enable-background:new 0 0 176 44;" xml:space="preserve"><style type="text/css">.st0{fill:#fff;}</style><g><path class="st0" d="M83.9,42.1V2h4.7v40.2L83.9,42.1L83.9,42.1z"/><g><polygon class="st0" points="54.6,23.2 54.6,6.4 54.6,6.4 54.6,2 49.9,2 49.9,42.1 54.6,42.1 54.6,27.6 54.6,27.6 		"/><path class="st0" d="M62.2,2h-2.1v4.4h2c6.3,0,10.2,3,10.2,8.4c0,5.2-3.6,8.4-10.2,8.4h-2v4.4h2.1c9.3,0,14.9-4.9,14.9-12.9
			C77.1,6.8,71.5,2,62.2,2z"/></g><path class="st0" d="M113.6,8.3l0.3-0.7l0,0C113.9,7.6,113.8,7.9,113.6,8.3z"/><polygon class="st0" points="157.7,30.5 166.4,42.1 172,42.1 160.5,26.8 	"/><polygon class="st0" points="141.9,1.8 136.4,1.8 148.2,17.6 150.9,13.9 	"/><polygon class="st0" points="166.4,1.8 154,18.5 151.3,22.2 136.4,42.1 142.2,42.1 154.3,25.9 157.1,22.2 172.2,1.8 	"/><path class="st0" d="M113.9,7.6L113.9,7.6l2.3-5.5l-0.1-0.2h-4.3L94.4,42.1h5l4.5-10.5l1.8-4.2l3.5-8.3l4.4-10.8
		C113.8,7.9,113.9,7.6,113.9,7.6z"/><polygon class="st0" points="116.6,14.2 122.2,27.4 124,31.6 128.5,42.1 133.5,42.1 118.9,8.5 	"/><path class="st0" d="M25.7,2.1l-0.1-0.2h-4.3L3.8,42.1h5L25.7,2.1z"/><polygon class="st0" points="26,14.2 31.7,27.4 33.4,31.6 37.9,42.1 43,42.1 28.4,8.5 	"/></g></svg>