<svg width="128" height="23" viewBox="0 0 128 23" fill="none" xmlns="http://www.w3.org/2000/svg"><path d="M23.175 19.3145V21.1622C23.175 22.1749 22.3367 23 21.3021 23H0.015625V19.3145H23.175Z" fill="white"/><path d="M96.2761 6.66675L99.3782 17.3652L102.933 6.67714H106.734L110.293 17.3652L112.845 8.34304L112.915 8.08441C113.194 7.28366 113.957 6.70377 114.86 6.67638H115.002V6.67714H117.78L117.03 9.09586L116.866 9.63087L112.846 22.5648H108.279L104.852 11.74L101.425 22.5648H96.8529L91.9219 6.67714L96.2761 6.66675Z" fill="white"/><path d="M53.0714 6.67627L53.072 8.45906V22.5629H48.8047V8.45906C48.9584 7.44988 49.8461 6.67627 50.9175 6.67627H53.0714Z" fill="white"/><path d="M72.385 0.62207V20.6207C72.3128 21.6364 71.5101 22.4506 70.489 22.5629H68.1172V0.62207H72.385Z" fill="white"/><path d="M63.5518 0.296631C64.7895 0.296631 65.8667 0.558052 66.6388 0.9531L65.7633 4.04553C65.4286 3.81276 64.9599 3.71463 64.3857 3.71463C63.1812 3.71463 62.3749 4.46974 62.3757 6.0157V6.67572H65.666V10.3252H62.3757V20.5506C62.3266 21.6708 61.3932 22.5628 60.2433 22.5628H58.1071V10.3257H55.4219V6.67597H58.1071V6.01595C58.1071 2.3023 60.4269 0.296631 63.5518 0.296631Z" fill="white"/><path d="M46.4597 6.67627V9.6688L39.004 18.9124H46.5971V22.5626H33.3281V19.4349L40.6509 10.326H33.3281V8.49912C33.3281 7.49045 34.162 6.67627 35.1896 6.67627H46.4597Z" fill="white"/><path d="M72.8851 20.3384C72.8975 20.3855 72.909 20.4333 72.909 20.4768C72.909 20.5319 72.8993 20.5828 72.8851 20.6263V20.3384Z" fill="white"/><path fill-rule="evenodd" clip-rule="evenodd" d="M91.6693 14.6001C91.6696 10.0931 88.4486 6.28052 83.0722 6.28052C77.7376 6.28052 74.5078 10.0936 74.5078 14.6001C74.5078 19.1112 77.7379 22.9562 83.0722 22.9562C88.4497 22.9562 91.6693 19.1112 91.6693 14.6001ZM78.9409 14.6001C78.9409 12.1345 80.4225 9.99543 83.0724 9.99543C85.761 9.99543 87.2386 12.135 87.2386 14.6001C87.2381 17.0987 85.7607 19.2365 83.0724 19.2365C80.4219 19.2365 78.9409 17.0987 78.9409 14.6001Z" fill="white"/><path d="M13.5933 12.9844V12.9849H15.473V16.6653H0V14.7205H0.00363569V14.7073C0.0680394 13.7473 0.88607 12.9844 1.88017 12.9844H13.5933Z" fill="white"/><path d="M23.1718 6.65894V8.50131C23.1718 9.51733 22.3317 10.3376 21.2934 10.3376H7.73438V6.65894H23.1718Z" fill="white"/><path d="M50.9195 0C52.3297 0 53.4707 1.08397 53.4705 2.46512C53.4705 3.84753 52.3297 4.96421 50.9195 4.96421C49.5408 4.96421 48.3984 3.84753 48.3984 2.46512C48.3984 1.08372 49.5413 0 50.9195 0Z" fill="white"/><path d="M23.175 0.327637V4.00883H0.015625V2.06935H0.0208188C0.0737961 1.09821 0.890529 0.328144 1.89268 0.328144V0.327637H23.175Z" fill="white"/></svg>