<?xml version="1.0" encoding="UTF-8"?><svg xmlns="http://www.w3.org/2000/svg" width="136" height="24" viewBox="0 0 136 24" fill="none"><path d="M0 12.0659C0 10.2391 0.201742 8.5828 0.605824 7.0975C1.00931 5.61219 1.6205 4.34366 2.43881 3.29308C3.25712 2.2425 4.28852 1.43066 5.5324 0.858161C6.77687 0.286252 8.23921 0 9.92059 0C11.0905 0 12.1833 0.168069 13.1986 0.503613C14.2139 0.839157 15.0973 1.32911 15.8475 1.97288C16.5984 2.61665 17.2 3.39523 17.6525 4.30862C18.1049 5.22201 18.3639 6.23993 18.4308 7.36237H14.0181C13.9077 6.14075 13.4732 5.22795 12.7157 4.62219C11.9583 4.01702 10.9215 3.71414 9.60544 3.71414C8.90889 3.71414 8.2589 3.82698 7.65606 4.05266C7.05322 4.27833 6.53633 4.59487 6.10479 5.00168C5.67326 5.40909 5.33901 5.90439 5.10086 6.48698C4.86271 7.07077 4.74393 7.72523 4.74393 8.45096V15.4831C4.74393 16.1762 4.87405 16.8176 5.13369 17.4061C5.39332 17.9947 5.75025 18.5012 6.20388 18.9247C6.6575 19.3487 7.18513 19.6789 7.78797 19.9153C8.39021 20.1522 9.04021 20.2704 9.73735 20.2704C11.1149 20.2704 12.1786 19.9735 12.9276 19.379C13.6773 18.7845 14.162 17.8111 14.3822 16.4571H18.7949C18.6182 17.7886 18.2702 18.9276 17.7515 19.8743C17.2329 20.8209 16.5757 21.5966 15.7813 22.2017C14.9862 22.8069 14.07 23.2576 13.0321 23.5552C11.9941 23.8521 10.8738 24.0006 9.6705 24.0006C7.98912 24.0006 6.54588 23.7007 5.3408 23.1009C4.13512 22.501 3.13477 21.6732 2.33794 20.6166C1.54172 19.5601 0.952606 18.3035 0.571205 16.8455C0.190999 15.3869 0 13.7941 0 12.0659ZM23.3359 12C23.3359 8.06077 24.2288 5.07532 26.0152 3.04543C27.801 1.01495 30.3366 0 33.6211 0C36.9057 0 39.4347 1.01495 41.2235 3.04543C43.0123 5.07592 43.907 8.06077 43.907 12C43.907 15.9392 43.0123 18.9241 41.2235 20.9546C39.4347 22.9851 36.9009 24 33.6211 24C30.3413 24 27.801 22.9845 26.0152 20.9546C24.2294 18.9241 23.3359 15.9392 23.3359 12ZM28.0804 15.549C28.0804 16.3193 28.2296 16.9957 28.5286 17.5795C28.8271 18.1627 29.2252 18.658 29.723 19.0648C30.2208 19.4722 30.8015 19.7745 31.4646 19.9729C32.1284 20.1712 32.847 20.2698 33.6211 20.2698C34.3953 20.2698 35.1169 20.1706 35.786 19.9729C36.4551 19.7745 37.0382 19.4722 37.536 19.0648C38.0338 18.658 38.4289 18.1598 38.722 17.5712C39.0151 16.9827 39.1613 16.3086 39.1613 15.5496V8.45155C39.1613 7.68128 39.0145 7.00485 38.722 6.42106C38.4289 5.83787 38.0338 5.34257 37.536 4.93576C37.0382 4.52895 36.4551 4.2237 35.786 4.0194C35.1169 3.8157 34.3953 3.71414 33.6211 3.71414C32.847 3.71414 32.1284 3.81629 31.4646 4.0194C30.8009 4.2231 30.2202 4.52836 29.723 4.93576C29.2252 5.34317 28.8271 5.83846 28.5286 6.42106C28.2302 7.00485 28.0804 7.68128 28.0804 8.45155V15.549ZM79.5145 23.4887V0.495298H88.9206C91.3863 0.495298 93.2115 1.08681 94.3951 2.26982C95.5781 3.45284 96.1696 5.3206 96.1696 7.8737C96.1696 10.4268 95.5119 12.1408 94.1958 13.3784C92.8797 14.6166 91.132 15.2349 88.9534 15.2349H83.9272V23.4881L79.5145 23.4887ZM83.9272 11.5219H89.4011C90.1752 11.5219 90.7315 11.3295 91.0688 10.9441C91.406 10.5592 91.5743 9.98674 91.5743 9.22775V6.3884C91.5743 5.61813 91.4173 5.06523 91.1016 4.72968C90.7864 4.39414 90.22 4.22607 89.4011 4.22607H83.9272V11.5219ZM101.116 23.4887V0.495298H105.529V19.7745H115.317V23.4881L101.116 23.4887ZM116.159 0.495298H121.153L126.113 10.036L131.073 0.495298H136L128.286 14.4925V23.4887H123.873V14.4925L116.159 0.495298Z" fill="#004861"/><path d="M63.8723 23.4774L68.6133 5.25705H68.7333V23.4774H72.9806V0.484015H65.7853L61.2897 18.5428H61.1524L56.6568 0.484015H49.4621V23.4774H53.7088V5.25705H53.8288L58.5697 23.4774H63.8723Z" fill="#004861"/></svg>