<svg height="80" viewBox="0 0 180 80" width="180" xmlns="http://www.w3.org/2000/svg"><path d="m78.8838 66.1h-55.6875l-22.5963-26.0181 22.5954-26.1819h55.6902l22.5144 26.2719zm-1.2834-49.5612h-53.1216l-20.3913 23.6295 20.3895 23.4639h53.1297l20.3076-23.3856zm5.7744 25.5537h-7.29c0 1.3212.0639 1.7037.081 2.0574.09 1.2231.6066 2.4525 1.9674 2.4525 1.5903 0 1.89-1.62 1.98-2.3769.0205941-.1774447.0305119-.3559661.0297-.5346h3.1383c-.2088 3.5658-2.1915 5.6646-5.1507 5.6646s-4.95-2.1528-5.1507-5.4963c-.0144-.2439-.0837-1.2915-.0837-2.538-.0215702-.8482412.0084853-1.6970091.09-2.5416.36-3.6675 2.2023-5.58 5.1462-5.58 1.447985-.0402917 2.8321085.5962055 3.744 1.7217.8305875 1.1245243 1.319027 2.4648423 1.4067 3.8601.0594.8946.0747 1.3239.0846 1.5768.0207.6489.0072 1.7325.0072 1.7325zm-3.2445-3.7683c-.0567-.8523-.4248-2.3841-1.9917-2.3706-1.323.009-1.8999 1.08-1.9908 2.3625-.0135.2061-.0135.36-.0396 1.0674h4.0797c.0054-.3186-.0279-.6156-.0576-1.0611zm-12.7422.8253c.0957418-.7800387-.0361573-1.571121-.3798-2.2779-.3960232-.5204935-1.0235263-.8118462-1.6767-.7785-.9828739-.0410687-1.8178889.7119252-1.8783 1.6938v11.2131h-3.2733v-21.4938h3.2724v6.5934c.7924355-.5898727 1.7553385-.9057858 2.7432-.9.9198945-.027601 1.8257391.230538 2.5929.7389 1.4787 1.0998 1.863 2.1438 1.863 5.0859v9.9756h-3.2679zm-12.5181-.837c-.0144-1.17-.5949-2.3715-1.9719-2.3607-1.3392.0072-1.8576 1.0413-1.9737 2.3742-.0845722.9945078-.1119173 1.9930542-.0819 2.9907.0135 1.8072 0 2.2842.0576 2.8989.0981 1.0098.6372 2.3841 1.998 2.3841 1.4616 0 1.881-1.269 1.9719-2.4588.0126-.1512.0297-.36.0432-.6003h3.2328c.0030719.1046945-.0026482.2094622-.0171.3132-.306 3.5739-2.0583 5.5098-5.2371 5.4990449-3.0663-.0108449-5.0238-2.0997449-5.2317-5.4990449-.0189-.2628-.0981-1.287-.0837-2.5371.0162-1.7172.0594-2.25.09-2.5425.333-3.6468 2.1879-5.58 5.2272-5.58 2.1456 0 4.8699 1.08 5.2371 5.5359.009.108.0171.2844.0279.5004h-3.2328c-.0297-.6228-.0558-.9045-.0558-.918zm-14.7339 11.0403c-3.0681 0-5.0247-2.0997-5.2335-5.499-.0189-.2592-.0972-1.287-.09-2.5353.0171-1.7154.0657-2.2545.09-2.547.333-3.645 2.1888-5.5737 5.229-5.5737 2.1456 0 4.761.99 5.22 5.58.0432.432.0963 1.9692.0963 2.538 0 1.2483-.0702 2.2932-.09 2.5353-.2016 3.3687-2.1546 5.5017-5.2218 5.5017zm1.98-11.0385c-.0162-1.1781-.63-2.3625-1.9719-2.3625s-1.9602 1.1844-1.9755 2.3724c0 .0054-.0837.8847-.0837 2.9943s.0828 2.8152.0837 2.8224c.0612 1.1385.6102 2.4588 1.9755 2.4588s1.8585-1.2366 1.9719-2.4048c.0144-.1845.0819-.774.0819-2.88s-.0828-2.9844-.0828-3.0006zm-12.4641 9.3789-.3339-4.9932c-.18-2.5443-1.35-3.4524-2.3868-3.4524h-1.8v9.7578h-3.2247v-21.3354h4.9932c3.06.0324 5.6565 1.4967 5.67 5.67.0117 2.7396-1.1313 4.05-2.016 4.5837 1.224.7128 1.8405 2.1024 1.9863 4.4649 0 0 .3366 5.2803.3366 5.2776.0145614.4479624.0690777.893731.1629 1.332h-3.2247c-.0896215-.429859-.1441014-.8663003-.1629-1.305zm-.3357-14.787c.0475844-.6991747-.2206988-1.3828708-.7310821-1.8630983-.5103833-.4802274-1.2091323-.7064267-1.9041179-.6164017h-1.5462v6.0687h1.7055c1.9674 0 2.3868-1.6479 2.4777-2.5911.0099-.1107.0144-.2133.0144-.504 0-.2457-.0135-.3753-.0162-.4932z" fill="#fff" fill-rule="evenodd"/></svg>