<?xml version="1.0" encoding="utf-8"?><!--Generator: Adobe Illustrator 19.1.0, SVG Export Plug-In . SVG Version: 6.00 Build 0)--><svg version="1.1" id="Layer_1" xmlns="http://www.w3.org/2000/svg" xmlns:xlink="http://www.w3.org/1999/xlink" x="0px" y="0px" viewBox="-217 379 149.48 36.14" style="enable-background:new -217 379 149.48 36.14;" xml:space="preserve"><style type="text/css">.st0{fill:#FFFFFF;}</style><g><g><path class="st0" d="M-74.32,391.71v-0.37h2.71v0.37h-1.15v2.99h-0.41v-2.99H-74.32z"/><path class="st0" d="M-69.36,393.64h-0.09l-1.21-1.71v2.77h-0.42v-3.36h0.5l1.18,1.73l1.17-1.73h0.5v3.36h-0.41v-2.76
			L-69.36,393.64z"/></g><g><polygon id="XMLID_213_" class="st0" points="-202.95,390.09 -203.83,390.09 -203.83,396.64 -210.37,396.64 -210.37,397.51 
			-203.83,397.51 -203.83,404.05 -202.95,404.05 -202.95,397.51 -196.41,397.51 -196.41,396.64 -202.95,396.64 		"/><rect id="XMLID_212_" x="-195.1" y="390.09" class="st0" width="0.87" height="13.96"/><g><polygon id="XMLID_211_" class="st0" points="-163.93,404.15 -163.93,397.76 -172.28,397.76 -172.28,404.15 -173.29,404.15 
				-173.29,390.09 -172.28,390.09 -172.28,396.78 -163.93,396.78 -163.93,390.09 -162.92,390.09 -162.92,404.15 			"/><path id="XMLID_208_" class="st0" d="M-151.37,398.79c-0.02-2.45-1.52-3.82-3.74-3.82c-1.91,0-3.55,1.39-3.76,3.82H-151.37z
				 M-159.8,399.19c0-2.97,2.09-5.12,4.69-5.12c2.6,0,4.92,1.71,4.56,5.58h-8.32c0.19,2.33,1.85,3.68,3.76,3.68
				c1.22,0,2.64-0.52,3.33-1.51l0.65,0.56c-0.9,1.27-2.51,1.91-3.98,1.91C-157.71,404.29-159.8,402.34-159.8,399.19"/><path id="XMLID_189_" class="st0" d="M-146.82,399.19c0,2.49,1.68,4.16,3.78,4.16c5.14,0,5.14-8.29,0-8.29
				C-145.14,395.05-146.82,396.7-146.82,399.19 M-138.35,398.26v5.89h-0.92v-2.11c-0.9,1.55-2.28,2.27-3.78,2.27
				c-2.58,0-4.69-2.09-4.69-5.12c0-3.03,2.11-5.08,4.69-5.08C-138.76,394.11-138.35,398.26-138.35,398.26"/><rect id="XMLID_188_" x="-134.93" y="390.09" class="st0" width="0.92" height="14.06"/><path id="XMLID_187_" class="st0" d="M-128.4,391.24v2.99h3.14v0.82h-3.14v6.05c0,1.34,0.26,2.29,1.7,2.29
				c0.45,0,0.95-0.16,1.42-0.4l0.32,0.8c-0.58,0.3-1.16,0.5-1.74,0.5c-1.96,0-2.6-1.25-2.6-3.19v-6.05h-1.96v-0.82h1.96v-2.89
				L-128.4,391.24z"/><path id="XMLID_186_" class="st0" d="M-121.33,390.09v5.98c0.75-1.43,2.04-1.97,3.33-1.99c2.58,0,3.87,1.79,3.87,4.38v5.68h-0.9
				v-5.68c0-2.05-0.9-3.43-2.97-3.43c-1.94,0-3.29,1.61-3.29,3.68v5.44h-0.92v-14.06H-121.33z"/><path id="XMLID_183_" class="st0" d="M-110.8,404.15h0.92v-9.96h-0.92V404.15z M-109.59,391c0,1.04-1.48,1.04-1.48,0
				C-111.06,389.95-109.59,389.95-109.59,391"/><path id="XMLID_182_" class="st0" d="M-98.76,402.77c-0.94,1-2.15,1.49-3.37,1.49c-2.6,0-4.75-1.93-4.75-5.06
				c0-3.13,2.08-5.06,4.75-5.06c1.22,0,2.43,0.5,3.37,1.49l-0.6,0.62c-0.75-0.8-1.78-1.18-2.77-1.18c-2.1,0-3.85,1.47-3.85,4.14
				c0,2.67,1.76,4.14,3.85,4.14c0.99,0,2-0.42,2.75-1.22L-98.76,402.77z"/><path id="XMLID_179_" class="st0" d="M-95.95,404.15h0.92v-9.96h-0.92V404.15z M-94.74,391c0,1.04-1.48,1.04-1.48,0
				C-96.21,389.95-94.74,389.95-94.74,391"/><path id="XMLID_178_" class="st0" d="M-89.37,391.24v2.99h3.14v0.82h-3.14v6.05c0,1.34,0.26,2.29,1.7,2.29
				c0.45,0,0.95-0.16,1.42-0.4l0.32,0.8c-0.58,0.3-1.16,0.5-1.74,0.5c-1.96,0-2.6-1.25-2.6-3.19v-6.05h-1.96v-0.82h1.96v-2.89
				L-89.37,391.24z"/><polygon id="XMLID_177_" class="st0" points="-75.08,394.23 -80.71,408.29 -81.68,408.29 -79.98,404.03 -83.68,394.23 
				-82.69,394.23 -80.54,400.09 -79.46,402.97 -78.39,400.07 -76.07,394.23 			"/></g><path class="st0" d="M-199.03,415.05c-9.91,0-17.97-8.06-17.97-17.97c0-9.91,8.06-17.97,17.97-17.97
			c9.91,0,17.97,8.06,17.97,17.97C-181.05,406.98-189.11,415.05-199.03,415.05z M-199.03,380.08c-9.37,0-16.99,7.62-16.99,16.99
			c0,9.37,7.62,16.99,16.99,16.99c9.37,0,16.99-7.62,16.99-16.99C-182.03,387.7-189.66,380.08-199.03,380.08z"/></g></g></svg>