<?xml version="1.0" encoding="UTF-8"?><svg id="Layer_1" xmlns="http://www.w3.org/2000/svg" width="200" height="34.4" xmlns:xlink="http://www.w3.org/1999/xlink" viewBox="0 0 200 34.4"><defs><style>.cls-1{fill:url(#linear-gradient);}.cls-1,.cls-2,.cls-3,.cls-4,.cls-5,.cls-6{stroke-width:0px;}.cls-2{fill:#160033;}.cls-3{fill:url(#linear-gradient-4);}.cls-4{fill:url(#linear-gradient-2);}.cls-5{fill:url(#linear-gradient-3);}.cls-6{fill:url(#linear-gradient-5);}</style><linearGradient id="linear-gradient" x1="-298.01" y1="-491.45" x2="-275.61" y2="-497.47" gradientTransform="translate(366.7 -451.06) rotate(8.05) scale(1 -1.02) skewX(-.16)" gradientUnits="userSpaceOnUse"><stop offset=".06" stop-color="#130231"/><stop offset=".08" stop-color="#12123b"/><stop offset=".2" stop-color="#0b5d67"/><stop offset=".31" stop-color="#07998b"/><stop offset=".4" stop-color="#03c4a4"/><stop offset=".47" stop-color="#01deb4"/><stop offset=".51" stop-color="#00e8ba"/><stop offset=".59" stop-color="#04c6a6"/><stop offset=".75" stop-color="#0e7173"/><stop offset=".9" stop-color="#172445"/></linearGradient><linearGradient id="linear-gradient-2" x1="2.12" y1="22.72" x2="15.42" y2="17.42" gradientTransform="translate(0 32) scale(1 -1)" gradientUnits="userSpaceOnUse"><stop offset=".24" stop-color="#16dea5"/><stop offset=".39" stop-color="#0ce9c6"/><stop offset=".58" stop-color="#00f6ee"/></linearGradient><linearGradient id="linear-gradient-3" x1="38.07" y1="8.01" x2="13.94" y2="27.1" gradientTransform="translate(0 32) scale(1 -1)" gradientUnits="userSpaceOnUse"><stop offset=".39" stop-color="#00f6ee"/><stop offset=".47" stop-color="#07efd8"/><stop offset=".67" stop-color="#16dea5"/><stop offset=".7" stop-color="#16d19e"/><stop offset=".77" stop-color="#15ad8b"/><stop offset=".85" stop-color="#15736d"/><stop offset=".96" stop-color="#132543"/><stop offset="1" stop-color="#130231"/></linearGradient><linearGradient id="linear-gradient-4" x1="13.99" y1="24.34" x2="21.43" y2="21.43" gradientTransform="translate(0 32) scale(1 -1)" gradientUnits="userSpaceOnUse"><stop offset=".21" stop-color="#16dea5"/><stop offset=".37" stop-color="#11e3b5"/><stop offset=".67" stop-color="#05f0dd"/><stop offset=".78" stop-color="#00f6ee"/></linearGradient><linearGradient id="linear-gradient-5" x1="12.17" y1="17.72" x2="12.53" y2="17.58" xlink:href="#linear-gradient-2"/></defs><path class="cls-2" d="M51.01,13.83c0-2.36-1-3.53-2.6-3.53s-2.73,1.3-2.73,3.4v7.75c0,.25-.2.45-.45.45h-2.56v-8.41c0-2.33-1.1-3.2-2.66-3.2-1.47,0-2.66.93-2.66,3.4v7.75c0,.25-.2.45-.44.45,0,0,0,0,0,0h-2.51v-13.33c0-.33.27-.59.59-.59h2.34v1.56c.9-1.4,2.2-1.83,3.5-1.83,1.6,0,2.93.7,3.86,2.3.84-1.44,2.39-2.32,4.06-2.3,2.93,0,5.3,1.73,5.3,5.99v7.76c0,.24-.2.44-.44.44h-2.6v-8.05Z"/><path class="cls-2" d="M188.69,13.83c0-2.36-1-3.53-2.6-3.53s-2.72,1.29-2.72,3.39v7.69c0,.28-.22.5-.5.5,0,0,0,0,0,0h-2.5v-8.4c0-2.33-1.1-3.2-2.66-3.2-1.47,0-2.66.93-2.66,3.4v7.69c0,.28-.22.5-.5.5h-2.46v-13.27c0-.36.29-.65.65-.65h2.28v1.57c.9-1.4,2.2-1.83,3.5-1.83,1.6,0,2.93.7,3.86,2.3.84-1.44,2.39-2.32,4.06-2.3,2.93,0,5.3,1.73,5.3,5.99v7.7c0,.27-.22.49-.49.49h-2.55v-8.05Z"/><path class="cls-2" d="M63.8,19.51c1.32.03,2.61-.45,3.6-1.33l1.53,2.26c-1.8,1.27-3.23,1.67-5.13,1.67-4.6,0-7.33-2.8-7.33-7.19s2.86-7.19,6.66-7.19c3.5,0,6.26,2.36,6.26,6.43,0,.63-.07,1.4-.07,1.4h-9.86c0,2.63,1.93,3.96,4.33,3.96ZM59.64,13.18h6.99c-.2-2-1.67-3-3.43-3-1.63,0-3.03,1-3.56,3h0Z"/><path class="cls-2" d="M77.16,22.04c-3.46,0-4.63-1.63-4.63-5.4v-6.2h-2.43l.67-2.5h1.77v-1.87c0-.54.37-1,.9-1.11l2.14-.47v3.46h3.46v2.5h-3.46v6.26c0,2.6.63,3,3.73,2.76l-.6,2.56h-1.53Z"/><path class="cls-2" d="M128.8,22.04c-3.46,0-4.63-1.63-4.63-5.4v-6.2h-2.43l.66-2.5h1.77v-1.87c0-.53.37-1,.9-1.11l2.14-.47v3.46h3.46v2.5h-3.46v6.26c0,2.6.63,3,3.73,2.76l-.6,2.57h-1.54Z"/><path class="cls-2" d="M84.79,15.85v6.03h-3v-13.36c0-.31.25-.56.56-.56h2.44v2.1c.47-1.47,1.96-2.33,3.53-2.33.27,0,.53,0,.8.03-.2.97-.27,1.72-.5,2.7h-.23c-3.17,0-3.6,2.46-3.6,5.4Z"/><path class="cls-2" d="M136.93,15.85v6.03h-3v-13.36c0-.31.25-.56.56-.56h2.44v2.1c.47-1.47,1.96-2.33,3.53-2.33.27,0,.53,0,.8.03-.2.97-.27,1.72-.5,2.7h-.23c-3.16,0-3.6,2.46-3.6,5.4Z"/><path class="cls-2" d="M92.92,5.39c-1,0-1.8-.63-1.8-1.7s.8-1.63,1.8-1.63,1.83.6,1.83,1.67-.8,1.67-1.83,1.67ZM91.41,7.95h3.03v13.92h-3.03V7.95Z"/><path class="cls-2" d="M96.73,14.92c0-4.53,3.1-7.23,7.33-7.23,1.7.02,3.35.53,4.76,1.47l-.63,2.66s-1.77-1.47-4.1-1.47c-2.46,0-4.4,1.6-4.4,4.53s1.87,4.63,4.36,4.63c1.41-.02,2.77-.53,3.86-1.43l1.37,2.43c-1.83,1.17-3.53,1.6-5.23,1.6-4.23,0-7.33-2.73-7.33-7.19Z"/><path class="cls-2" d="M116.01,10.29c-.9,0-1.89.37-1.89,1.36,0,2.6,6.96,1.33,6.96,6.2,0,2.6-2.03,4.23-5.23,4.23-1.47,0-3.16-.27-5.23-1.6.53-.73,1.53-2.16,1.53-2.16,1.1.73,2.5,1.21,3.6,1.21,1.5,0,2.24-.66,2.24-1.6,0-2.83-6.8-1.33-6.8-6.29,0-2.46,2-3.93,4.83-3.93,1.53,0,3.02.48,4.26,1.37l-.5,2.6c-1.48-1.04-2.72-1.37-3.77-1.37Z"/><path class="cls-2" d="M149.38,19.51c1.32.03,2.61-.45,3.6-1.33l1.53,2.26c-1.8,1.27-3.23,1.67-5.13,1.67-4.6,0-7.33-2.8-7.33-7.19s2.87-7.19,6.66-7.19c3.5,0,6.26,2.36,6.26,6.43,0,.63-.07,1.4-.07,1.4h-9.86c0,2.63,1.93,3.96,4.33,3.96ZM145.22,13.18h6.99c-.2-2-1.67-3-3.43-3-1.63,0-3.03,1-3.56,3h0Z"/><path class="cls-2" d="M163.38,7.75c1.51,0,3.18.27,4.51,1.06,1.7,1.01,2.02,2.52,2.02,4.37v8.69h-2.96v-2.06s-.02-.06-.06-.06c-.03,0-.05.01-.06.04-.59,1.33-2.23,2.25-4.14,2.25-4.2,0-6.39-3.06-6.39-7.09s2.53-7.19,7.09-7.19ZM163.02,19.38c2.4,0,3.93-2.13,3.93-5.63v-1.07c0-1.89-1.93-2.29-3.43-2.29-2.76,0-4.16,2.16-4.16,4.66,0,2.46,1.07,4.33,3.66,4.33h0Z"/><path class="cls-2" d="M114.79,34.04c-.37.28-.83.43-1.29.41-1.19,0-1.87-.66-1.87-1.85v-3.25h-1v-.89h1v-1.3h1.07v1.3h1.7v.88h-1.7v3.2c0,.64.34.99.93.99.3,0,.6-.09.84-.28l.33.78Z"/><path class="cls-2" d="M122.36,30.98v3.4h-1.07v-3.27c0-1.16-.58-1.72-1.59-1.72-1.14,0-1.87.69-1.87,1.96v3.04h-1.07v-8.29h1.07v3.2c.45-.57,1.18-.89,2.09-.89,1.44,0,2.45.82,2.45,2.56Z"/><path class="cls-2" d="M128.19,28.42v1.03c-.08,0-.16-.01-.25-.01-1.15,0-1.86.7-1.86,2v2.94h-1.07v-5.92h1.03v.99c.37-.68,1.11-1.04,2.15-1.04Z"/><path class="cls-2" d="M129.99,26.64c0-.39.32-.71.71-.7,0,0,.01,0,.02,0,.38.02.68.34.67.72s-.34.68-.72.67c-.37-.01-.67-.32-.67-.69ZM130.18,28.46h1.07v5.91h-1.07v-5.91Z"/><path class="cls-2" d="M139.19,28.46l-2.58,5.91h-1.09l-2.6-5.91h1.11l2.03,4.74,2.08-4.74h1.05Z"/><path class="cls-2" d="M146.01,31.78h-4.8c.13,1.03.97,1.72,2.14,1.72.65.02,1.27-.24,1.71-.71l.59.69c-.54.63-1.35.96-2.33.96-1.91,0-3.18-1.26-3.18-3.02s1.26-3.01,2.97-3.01,2.93,1.23,2.93,3.04c0,.1-.02.23-.03.33ZM141.22,31.01h3.79c-.13-1.05-1.08-1.79-2.12-1.67-.87.11-1.56.79-1.67,1.67Z"/><path class="cls-2" d="M151.31,31.43c0-1.76,1.31-3.01,3.08-3.01s3.07,1.25,3.07,3.01-1.3,3.02-3.07,3.02-3.08-1.26-3.08-3.02ZM156.37,31.43c0-1.26-.85-2.07-1.99-2.07s-2,.81-2,2.07.86,2.09,2,2.09,1.99-.83,1.99-2.09Z"/><path class="cls-2" d="M165.22,30.98v3.4h-1.07v-3.27c0-1.16-.58-1.72-1.59-1.72-1.14,0-1.88.69-1.88,1.96v3.04h-1.07v-5.93h1.03v.89c.44-.6,1.2-.95,2.13-.95,1.43,0,2.44.83,2.44,2.57Z"/><path class="cls-2" d="M174.72,28.42v1.03c-.08,0-.16-.01-.24-.01-1.15,0-1.86.7-1.86,2v2.94h-1.07v-5.92h1.03v.99c.37-.68,1.11-1.04,2.15-1.04Z"/><path class="cls-2" d="M176.51,26.64c0-.39.32-.71.71-.7,0,0,.01,0,.02,0,.38.02.68.34.67.72-.02.38-.34.68-.72.67-.37-.01-.67-.32-.67-.69ZM176.7,28.47h1.07v5.91h-1.07v-5.91Z"/><path class="cls-2" d="M179.73,33.76l.45-.85c.62.4,1.33.61,2.07.61.99,0,1.41-.3,1.41-.8,0-1.33-3.74-.17-3.74-2.53,0-1.06.95-1.77,2.46-1.77.77,0,1.64.2,2.15.53l-.46.85c-.51-.32-1.1-.48-1.71-.47-.94,0-1.39.34-1.39.81,0,1.39,3.75.25,3.75,2.55,0,1.07-.98,1.75-2.56,1.75-.97,0-1.94-.3-2.43-.69Z"/><path class="cls-2" d="M189.04,31.63l-1.23,1.14v1.62h-1.07v-8.28h1.07v5.31l3.22-2.94h1.3l-2.49,2.44,2.73,3.47h-1.32l-2.22-2.76Z"/><path class="cls-2" d="M193.94,27.04h2.47v.39h-1v2.35h-.48v-2.35h-1v-.39ZM199.56,29.78v-1.92l-1.03,1.6h-.22l-1.03-1.57v1.89h-.47v-2.74h.39l1.22,1.87,1.19-1.87h.39v2.74h-.44Z"/><path class="cls-1" d="M11.16,15.09c.55,1.26,1.03-.17,1.03-.17l.76-2.04,3.1-8.32-1.16-4.02c-.07-.17-.4.17-.43.2-.18.27-.32.57-.42.89-.29.74-.52,1.49-.77,2.24-.26.79-.53,1.58-.79,2.38-.52,1.59-1.03,3.18-1.56,4.76l-.04.13-.37,1.11.48,2.12s.17.71.17.73Z"/><path class="cls-4" d="M7.85,20.57c-.34,1.02-1.34,1.96-2.41,1.97l-5.44.04L6.86,1.79C7.13.94,7.98,0,8.94,0h5.24c.32,0,.6.19.7.49l.03.07s0,0-.01-.01c-.09-.05-.3.16-.36.23l-.02.02c-.18.27-.33.57-.42.89-.29.74-.52,1.49-.77,2.24-.26.79-.53,1.58-.79,2.38-.52,1.59-1.03,3.18-1.56,4.76l-.04.13-.37,1.11-2.71,8.27Z"/><path class="cls-5" d="M25.64,21.77c-.61.51-1.37.79-2.17.81l-4.13-.02c.15-.93.2-4.91.5-8.14l1.35-3.72s.03-.08.05-.12c.54-1.52,1.08-3.04,1.62-4.57.27-.76.54-1.52.82-2.28.26-.72.5-1.44.8-2.15.09-.22.18-.44.3-.65.02-.03.04-.06.06-.09.01-.02.02-.04.04-.06.01-.02.02-.03.04-.05.03-.03.38-.38.46-.2,0,.07.02.13.02.2v.18s0,.04,0,.06v.3s0,.05,0,.08v.09s0,.06,0,.09v.52s0,.03,0,.05l.71,16.66c.09.96.32,2.34-.45,3Z"/><path class="cls-3" d="M25.35.54c-.07-.17-.42.17-.45.19,0,0,0,0-.01.02-.01.02-.03.03-.04.05-.01.02-.03.04-.04.06-.02.03-.04.06-.06.09-.11.21-.21.43-.3.65-.3.71-.54,1.43-.8,2.15-.28.76-.55,1.52-.82,2.28-.54,1.52-1.07,3.05-1.62,4.57-.02.04-.03.08-.05.12l-1.35,3.72-.26.72-.86,2.38c-.33.92-1,1.67-1.88,2.1-1.01.47-2.13.33-3.1-.19-.13-.07-.26-.15-.39-.24-.02,0-.04,0-.07-.02-.08-.06-.15-.13-.22-.21-.39-.34-.71-.76-.92-1.23-.03-.05-.05-.08-.06-.09-.04-.04-.84-2.37-.95-2.66.02.04.04.1.06.13s.03.06.04.09c.02.04.04.07.06.11.02.03.04.06.07.09.01.01.02.02.03.03.06.07.15.12.24.12.02,0,.04,0,.06,0,.02,0,.03,0,.05-.02.26-.11.45-.58.45-.58l.68-1.82.04-.11.07-.19,3.09-8.27,1.08-2.9c.15-.42.42-.8.77-1.08C18.43.2,19.06,0,19.7.01h4.83c.22,0,.42-.01.56.11.08.06.15.14.19.24l.07.18Z"/><path class="cls-6" d="M12.87,13.14l-.67,1.81s-.18.47-.45.58c.24-.11.41-.54.41-.54l.71-1.85Z"/></svg>